<svg xmlns="http://www.w3.org/2000/svg" width="120" height="140" fill="none"><path fill="url(#a)" d="M17 22.667S33.753 6 60 6s43 16.667 43 16.667L91.273 96H29.286L17 22.667Z"/><path stroke="#EF8AFF" stroke-width=".5" d="M60 139.72 7.559 113.5 60 87.28l52.441 26.22L60 139.72Z" opacity=".3"/><path stroke="#EF8AFF" stroke-width=".5" d="M60 132.72 21.559 113.5 60 94.28l38.441 19.22L60 132.72Z" opacity=".4"/><path fill="url(#b)" d="M42.817 28.598 60.012 20l17.195 8.598-17.195 8.597-17.195-8.597Z"/><path fill="url(#c)" d="M77.207 28.597V90.59l-17.195 8.598V37.195l17.195-8.598Z"/><path fill="url(#d)" d="M60.012 37.195v61.992l-17.195-8.598V28.597l17.195 8.598Z"/><path fill="url(#e)" d="m17 70.531 17.195-8.598 17.196 8.598-17.196 8.598L17 70.53Z"/><path fill="url(#f)" d="M51.39 70.531v33.732l-17.195 8.598V79.129l17.196-8.598Z"/><path fill="url(#g)" d="M34.195 79.129v33.732L17 104.263V70.531l17.195 8.598Z"/><path fill="url(#h)" d="m68.61 53.336 17.195-8.598L103 53.336l-17.195 8.598-17.196-8.598Z"/><path fill="url(#i)" d="M103 53.336v50.71l-17.195 8.598v-50.71L103 53.336Z"/><path fill="url(#j)" d="M85.805 61.934v50.71l-17.196-8.598v-50.71l17.196 8.598Z"/><path fill="url(#k)" d="m42.817 97.915 17.195-8.597 17.195 8.597-17.195 8.598-17.195-8.598Z"/><path fill="url(#l)" d="M77.207 97.915v19.192l-17.195 8.598v-19.192l17.195-8.598Z"/><path fill="url(#m)" d="M60.012 106.513v19.192l-17.195-8.598V97.915l17.195 8.598Z"/><defs><linearGradient id="a" x1="60" x2="60" y1="100" y2="12.5" gradientUnits="userSpaceOnUse"><stop stop-color="#B267DF"/><stop offset=".945" stop-color="#E545FF" stop-opacity="0"/></linearGradient><linearGradient id="b" x1="60.012" x2="60.012" y1="20" y2="37.195" gradientUnits="userSpaceOnUse"><stop stop-color="#CF72DE"/><stop offset="1" stop-color="#FCA7FF"/></linearGradient><linearGradient id="c" x1="68.61" x2="68.61" y1="28.597" y2="99.187" gradientUnits="userSpaceOnUse"><stop stop-color="#895EE6"/><stop offset="1" stop-color="#3827A6"/></linearGradient><linearGradient id="d" x1="51.414" x2="51.414" y1="28.597" y2="99.187" gradientUnits="userSpaceOnUse"><stop stop-color="#BC6BE2"/><stop offset="1" stop-color="#6F3E9F"/></linearGradient><linearGradient id="e" x1="34.195" x2="34.195" y1="61.933" y2="79.129" gradientUnits="userSpaceOnUse"><stop stop-color="#CF72DE"/><stop offset="1" stop-color="#FCA7FF"/></linearGradient><linearGradient id="f" x1="42.793" x2="42.793" y1="70.531" y2="112.861" gradientUnits="userSpaceOnUse"><stop stop-color="#895EE6"/><stop offset="1" stop-color="#3827A6"/></linearGradient><linearGradient id="g" x1="25.598" x2="25.598" y1="70.531" y2="112.861" gradientUnits="userSpaceOnUse"><stop stop-color="#BC6BE2"/><stop offset="1" stop-color="#6F3E9F"/></linearGradient><linearGradient id="h" x1="85.805" x2="85.805" y1="44.738" y2="61.934" gradientUnits="userSpaceOnUse"><stop stop-color="#CF72DE"/><stop offset="1" stop-color="#FCA7FF"/></linearGradient><linearGradient id="i" x1="94.402" x2="94.402" y1="53.336" y2="112.644" gradientUnits="userSpaceOnUse"><stop stop-color="#895EE6"/><stop offset="1" stop-color="#3827A6"/></linearGradient><linearGradient id="j" x1="77.207" x2="77.207" y1="53.336" y2="112.644" gradientUnits="userSpaceOnUse"><stop stop-color="#BC6BE2"/><stop offset="1" stop-color="#6F3E9F"/></linearGradient><linearGradient id="k" x1="60.012" x2="60.012" y1="89.318" y2="106.513" gradientUnits="userSpaceOnUse"><stop stop-color="#CF72DE"/><stop offset="1" stop-color="#FCA7FF"/></linearGradient><linearGradient id="l" x1="68.61" x2="68.61" y1="97.915" y2="125.705" gradientUnits="userSpaceOnUse"><stop stop-color="#895EE6"/><stop offset="1" stop-color="#3827A6"/></linearGradient><linearGradient id="m" x1="51.414" x2="51.414" y1="97.915" y2="125.705" gradientUnits="userSpaceOnUse"><stop stop-color="#BC6BE2"/><stop offset="1" stop-color="#6F3E9F"/></linearGradient></defs></svg>