<svg xmlns="http://www.w3.org/2000/svg" width="166" height="200" fill="none"><path fill="url(#a)" d="m18.4 72 64.5-23 64.5 23-64.5 23-64.5-23Z"/><path fill="url(#b)" d="M100.833 80.228a15.544 15.544 0 0 0-5.242-1.97 20.488 20.488 0 0 0-1.378-.227l-.399-.048a28.137 28.137 0 0 0-1.133-.107l-.336-.024c-.48-.029-.96-.043-1.464-.048h-.332c-.403 0-.806 0-1.219.029h-.48l-.74.053-.566.048-.763.082-.586.073-.451.063-.759.115-.48.083-.571.106c-.552.106-1.11.217-1.671.348h-.077c-.542.125-1.08.265-1.628.415l-.48.13c-.384.107-.768.223-1.147.338l-.48.145c-.456.145-.908.295-1.364.454l-.144.092c-.48.179-.998.362-1.498.556l-.446.178-1.047.425-.518.227c-.336.145-.672.295-1.004.45l-.48.222-1.248.618-.216.106c-.48.251-.984.512-1.474.778l-.394.222c-.384.213-.763.43-1.138.652l-.437.26c-.523.315-1.041.633-1.55.967l-.067.043a46.4 46.4 0 0 0-1.671 1.145l-.37.26c-.216.16-.432.32-.643.484l-.514.386c-.216.164-.427.333-.639.483l-.48.391-.624.527-.48.391-.629.57-.413.377c-.23.212-.446.43-.667.647l-.336.324c-.327.328-.648.661-.96.994-.312.334-.668.74-.96 1.111l-.125.145c-.298.353-.581.7-.85 1.048l-.144.189c-.264.347-.514.69-.754 1.038l-.12.174c-.24.352-.48.705-.686 1.053l-.053.092c-.178.285-.336.57-.48.855l-.25.458c-.115.222-.22.44-.327.662a17.98 17.98 0 0 0-.21.44c-.15.333-.294.661-.418.99v.038c-.125.334-.236.657-.337.966-.024.073-.043.14-.062.213a12.4 12.4 0 0 0-.254.966v.101c-.068.319-.125.633-.169.966v.077a6.776 6.776 0 0 0-.052.483 9.52 9.52 0 0 1-3.606-3.863l-.144-.31v-.029a7.222 7.222 0 0 1-.326-.922c-.048-.17-.063-.184-.092-.275a.365.365 0 0 1 0-.068.561.561 0 0 1-.024-.097.175.175 0 0 1 0-.053.332.332 0 0 1 0-.067.548.548 0 0 1 0-.087.3.3 0 0 1 0-.063c0-.073-.033-.145-.048-.217-.014-.073-.048-.208-.067-.314v-.097a.062.062 0 0 1 0-.029c-.024-.174-.038-.348-.057-.522 0-.062 0-.13-.024-.188v-.314a1.947 1.947 0 0 1 0-.237v-.594c.002-.04.002-.08 0-.12 0-.14 0-.28.028-.425v-.208c0-.073.024-.251.044-.377.019-.125 0-.12.024-.178 0-.15.043-.305.072-.454l.057-.314a.453.453 0 0 0 0-.078 2.31 2.31 0 0 1 .067-.304v-.068c.024-.101.048-.212.082-.318.034-.107.082-.305.13-.46.072-.27.163-.54.264-.82.033-.107.077-.213.115-.324a.195.195 0 0 0 0-.048c.024-.063.048-.13.077-.193.053-.136.105-.276.168-.41.062-.136.077-.184.12-.276.043-.092.043-.102.067-.15.067-.15.14-.295.211-.44l.159-.328a13.302 13.302 0 0 1 .418-.792l.052-.106c.043-.082.087-.16.14-.242l.047-.087c.077-.14.168-.28.255-.425a15.604 15.604 0 0 1 .389-.618l.35-.526.15-.213.033-.043c.09-.145.197-.29.307-.435l.298-.406a32.446 32.446 0 0 1 1.08-1.347l.125-.15c.312-.367.638-.739.96-1.106.245-.26.48-.522.749-.778l.211-.217c.11-.111.221-.222.336-.328.212-.218.428-.42.644-.619.094-.097.193-.189.297-.275l.039-.039.105-.091.312-.285c.168-.16.341-.31.514-.454l.245-.208.091-.077.034-.03c.158-.135.321-.275.48-.405l.134-.111.106-.087c.293-.237.586-.483.883-.695l.255-.199.259-.193c.211-.164.427-.323.643-.483l.173-.125.197-.136c.24-.173.48-.343.725-.507l.082-.058.134-.091c.22-.155.447-.305.672-.45l.125-.082.821-.521c.24-.155.48-.305.73-.45l.144-.086.149-.087h.028l.116-.063c.374-.222.753-.44 1.138-.652l.13-.078.23-.125h.028l.543-.295.12-.063.806-.42.202-.101.63-.31c.206-.105.417-.207.628-.303l.317-.145.158-.073 1.004-.444.125-.058.288-.126c.036-.016.072-.03.11-.043l1.037-.425.168-.068.283-.11c.25-.104.504-.2.764-.29.297-.112.6-.223.902-.324.226-.082.452-.16.682-.232l.682-.222.005-.136.086-.029.149-.043.149-.043.576-.174.571-.165.144-.043.24-.068c.573-.16 1.145-.306 1.714-.434h.072c.279-.068.562-.13.84-.184l.457-.092.34-.067.264-.053h.048l.293-.053.48-.078c.253-.045.508-.083.764-.116l.269-.038.36-.053.384-.044.763-.082.567-.048.725-.054h.25c.084-.004.17-.004.254 0h2.343c.206 0 .38 0 .571.03.192.028.327 0 .48.028.384.03.759.063 1.133.107l.399.048c.235.029.48.063.696.102l.686.12a20.542 20.542 0 0 1 1.609.391l.662.208.183.063c.173.058.34.12.509.188.07.021.14.049.206.082l.077.03c.173.067.34.14.509.217.168.077.254.116.374.178l.053.03.091.043.245.125c.144.073.284.155.418.232l.187.111a10.919 10.919 0 0 1 .989.676c.173.136.317.252.48.382l.068.058c.124.111.25.222.37.338l.076.077.082.083.172.178.049.058c.057.053.105.111.153.164.218.246.42.506.605.778.062.082.12.168.173.256a4.109 4.109 0 0 1 .144.232v.029l.067.106a.39.39 0 0 1 .034.063c.062.101.115.207.173.314a9.618 9.618 0 0 1 .945 5.347Z"/><path fill="url(#c)" d="M109.793 75.857a6.285 6.285 0 0 0-.034-.686l-.029-.338c0-.217-.043-.435-.081-.652 0-.12-.039-.237-.063-.352-.024-.116-.033-.189-.052-.28-.02-.092-.044-.208-.068-.31a10.035 10.035 0 0 1-.062-.285l-.058-.217a2.022 2.022 0 0 0-.072-.241l-.043-.14c-.034-.097-.062-.199-.096-.295a10.418 10.418 0 0 0-.36-.923l-.101-.212-.053-.111c-1.834-3.816-5.79-6.632-11.762-7.82-15.335-3.047-38.284 5.767-51.15 19.648-7.947 8.578-10.222 17.107-7.202 23.101a11.215 11.215 0 0 0 .509.903c.038.068.081.131.124.194.044.062.15.227.23.338a10.712 10.712 0 0 0 1.09 1.357c.12.126.313.319.48.483.169.164.27.251.414.377.144.125.34.289.518.43l.365.275c.293.217.595.425.912.623.125.082.255.159.384.237l.399.227c.11.062.22.125.336.183l.106.053.345.174c.6.297 1.215.56 1.844.787l.6.208c.227.077.458.15.691.217h.034l.48.14.168.044.37.097c.403.101.82.193 1.248.28.216.043.427.082.643.116l.658.106.355.053.567.072a39.82 39.82 0 0 0 2.15.194h.351l.562.024h2.708l.58-.024.366-.025c.321 0 .653-.038.96-.067l.749-.063.686-.077a.834.834 0 0 1-.033-.102c-.058-.174-.11-.352-.164-.526-.023-.092-.057-.184-.081-.275l-.115-.44a25.085 25.085 0 0 1-.332-1.347c-.048-.218-.096-.435-.139-.653a27.14 27.14 0 0 1-.125-.666 17.215 17.215 0 0 1-.1-.638c-.03-.212-.063-.434-.087-.652-.024-.217-.053-.415-.072-.618v-.13a24.787 24.787 0 0 1-4.364-.449 15.515 15.515 0 0 1-5.243-1.971 9.522 9.522 0 0 1-3.605-3.864l-.145-.309v-.029a10.036 10.036 0 0 1-.139-.338.875.875 0 0 0-.033-.102 6.754 6.754 0 0 1-.245-.748.365.365 0 0 1 0-.068.572.572 0 0 1-.024-.096.176.176 0 0 1 0-.053.347.347 0 0 1 0-.068.573.573 0 0 1 0-.087.3.3 0 0 1 0-.063 3.901 3.901 0 0 1-.115-.531.091.091 0 0 1 0-.034.275.275 0 0 1 0-.063.065.065 0 0 1 0-.029 9.193 9.193 0 0 1-.082-.71v-.314a1.947 1.947 0 0 1 0-.236v-.594c.002-.04.002-.08 0-.121 0-.14 0-.28.029-.425v-.208c0-.072.024-.251.043-.377a.235.235 0 0 1 0-.057v-.121c0-.15.043-.305.072-.454.029-.15.038-.208.058-.314a.453.453 0 0 0 0-.078c.015-.102.038-.204.067-.304v-.067c.024-.102.048-.213.081-.32.034-.105.082-.303.13-.458.072-.27.163-.54.264-.821.034-.106.077-.213.115-.324a.205.205 0 0 0 0-.048c.024-.063.048-.13.077-.193.053-.135.106-.275.168-.41.063-.136.077-.184.12-.276.044-.092.044-.101.068-.15.115-.256.235-.512.37-.768.052-.11.11-.222.167-.333.091-.188.197-.377.303-.565a3.13 3.13 0 0 1 .139-.242l.048-.087c.077-.14.168-.28.254-.424a11.204 11.204 0 0 1 .74-1.145l.148-.213.034-.043c.091-.145.197-.29.307-.435l.298-.406c.072-.101.149-.198.23-.299.265-.348.548-.696.85-1.048l.125-.15c.312-.367.639-.739.96-1.106.245-.26.48-.522.75-.778l.21-.217c.111-.11.221-.222.337-.328.21-.218.427-.42.643-.618.094-.097.194-.19.298-.276l.038-.038c.135-.13.279-.256.418-.377.168-.16.34-.31.514-.454l.244-.208.091-.077.034-.03c.159-.144.317-.274.48-.405l.106-.092h.029l.105-.086c.293-.237.586-.483.884-.696l.254-.198c.087-.068.173-.135.26-.193.21-.164.427-.324.643-.483l.173-.126.196-.135c.24-.174.48-.343.725-.507l.082-.058.135-.092c.22-.154.446-.304.672-.45l.124-.081.821-.522c.24-.154.48-.304.73-.449l.144-.087h.034l.115-.063h.029c.456-.27.917-.536 1.383-.792l.13-.077.1-.048h.029l.542-.295.12-.063.807-.42.182-.087.63-.309c.206-.106.417-.208.628-.304l.317-.145.159-.073c.33-.154.667-.304 1.003-.444l.125-.058.288-.126c.036-.016.073-.03.11-.043.346-.15.687-.29 1.037-.425l.168-.068.164-.067.12-.044c.25-.103.504-.2.763-.29.298-.11.6-.222.903-.323.225-.082.45-.16.681-.232.23-.072.456-.154.682-.222l.163-.29.087-.029.149-.043.148-.044c.197-.063.385-.12.576-.174l.572-.164.144-.043.24-.068a34.289 34.289 0 0 1 1.714-.435h.072c.278-.067.562-.13.84-.183l.456-.092.341-.068h.034c.076 0 .153-.033.23-.043h.048l.293-.053.48-.078c.253-.048.508-.086.764-.115l.268-.04.178-.028h.182l.384-.043a21.32 21.32 0 0 1 1.33-.13c.245-.025.48-.044.725-.054h.25a2.25 2.25 0 0 1 .255 0h2.343c.206 0 .379 0 .57.029h.154l.337.024c.383 0 .758.058 1.132.106l.399.049c.235.029.48.062.696.101.216.039.48.077.687.12.206.044.552.117.82.184.27.068.534.13.788.208.255.077.447.135.663.208l.182.063c.173.058.34.12.509.188.071.02.14.048.206.082l.077.029c.173.068.341.14.51.217.167.078.254.116.374.179l.052.029.092.043.245.126c.143.073.283.155.417.232l.187.11a10.872 10.872 0 0 1 .989.676c.173.136.317.248.48.383l.068.058c.125.11.25.222.37.338l.076.077.082.082.173.179.048.058c.057.053.105.11.153.164.218.246.42.506.605.778.066.08.123.165.173.256a4.028 4.028 0 0 1 .144.231v.03l.067.106c.013.02.025.04.034.062.062.102.115.208.173.314.009.025.02.05.033.073a9.624 9.624 0 0 1 .903 5.313c-.307 3.255-1.992 6.935-5.103 10.669-.39.483-.802.937-1.234 1.405a39.768 39.768 0 0 1-2.924 2.835 50.007 50.007 0 0 1-9.89 6.762 53.165 53.165 0 0 1-6.463 2.898 23.513 23.513 0 0 0 1.244 5.033c.13-.044.254-.097.384-.145.677-.256 1.344-.536 2.016-.816l.586-.251c.687-.3 1.368-.604 2.045-.923l.83-.401.86-.42.288-.14.96-.507c.327-.174.654-.348.96-.527l.058-.029c.154-.082.313-.169.48-.26l.76-.43.753-.44.576-.343h.024l.283-.169.327-.203c.48-.289.931-.574 1.387-.874h.034l.086-.058c.38-.246.75-.483 1.119-.748l1.09-.759c.331-.231.653-.483.96-.705.307-.222.643-.483.96-.719l.091-.073.615-.483.48-.386.394-.324.413-.343.408-.352.427-.363.082-.072c.48-.43.96-.87 1.44-1.319h.024l.053-.053c.283-.265.561-.536.835-.806l.221-.213.22-.217c.318-.319.625-.638.927-.966l.337-.358.388-.425.356-.396.024-.029.245-.285c.168-.188.331-.376.48-.57l.273-.328.428-.522.273-.347.389-.508.259-.347c.125-.17.25-.338.365-.483l.25-.348.35-.517.221-.328c.125-.187.245-.375.36-.565l.173-.27c.087-.136.168-.276.25-.416.081-.14.163-.28.245-.416v-.024l.336-.603.326-.628.087-.165c.1-.198.197-.396.293-.594.134-.28.259-.555.374-.83l.192-.45c.062-.15.12-.304.178-.449v-.053c.12-.314.23-.623.336-.937l.091-.28c.096-.285.178-.565.254-.85.053-.203.106-.406.154-.604 0-.077.034-.154.053-.227.062-.256.115-.517.158-.768.044-.25.087-.483.12-.758l.029-.275c0-.15.039-.305.053-.454.014-.15 0-.193 0-.295 0-.101.024-.28.029-.42.005-.14 0-.213 0-.319v-.333c0-.116.149-.314.144-.43Z"/><path fill="url(#d)" d="m65.608 122.799-.297.029-.75.063-.96.072-.33.024h-2.756c-.38 0-.76 0-1.134-.038h-.345c-.48-.029-.912-.058-1.359-.102l-.226-.029a28.861 28.861 0 0 1-1.133-.135l-.36-.053c-.437-.068-.869-.14-1.296-.222-5.939-1.184-9.876-3.971-11.729-7.728l-4.407-8.989a11.33 11.33 0 0 0 .508.904c.087.135.082.13.125.193.044.063.15.227.23.338a10.713 10.713 0 0 0 1.09 1.357c.12.126.313.319.48.483.169.164.27.251.414.377.144.125.34.29.518.43l.365.275c.293.217.595.425.912.623.125.082.255.159.384.237l.399.227c.11.062.22.125.336.183l.105.053.346.174c.6.297 1.215.56 1.844.787l.6.208c.227.077.458.15.691.218h.034l.48.14.168.043.37.097c.403.101.82.193 1.248.28.216.043.427.082.643.116l.658.106.355.053.567.073c.706.091 1.44.154 2.15.193h.351l.562.024h2.708l.58-.024a42.426 42.426 0 0 0 2.785-.218c.068.227.144.454.216.681l.183.537c.096.27.197.545.302.821.063.173.13.343.197.516.115.3.24.599.365.899l.187.454c0 .038.029.072.048.111a47.554 47.554 0 0 0 .562 1.251c.216.483.437.913.667 1.371l.23.44c.164.314.327.633.48.966l.294.531.312.556.033.024Z"/><path fill="url(#e)" d="M114.273 85.3V85.984l-.029.425v.295c0 .101-.034.304-.053.454 0 .077 0 .155-.024.232-.024.077 0 .024 0 .038-.034.252-.077.483-.12.759v.077c-.043.227-.091.459-.144.69a.236.236 0 0 0 0 .054c0 .058-.034.116-.048.174-.048.198-.096.4-.154.603a6.265 6.265 0 0 1-.081.29c-.053.189-.111.372-.168.56 0 .059-.034.116-.053.174-.019.058-.029.073-.038.107-.106.314-.217.623-.337.937v.053c-.115.3-.24.599-.369.898l-.053.126-.053.11c-.173.397-.36.793-.562 1.194l-.086.16c-.211.42-.437.835-.682 1.26-.158.275-.326.555-.48.83l-.173.271-.36.57-.221.324-.35.516-.25.348-.365.483-.264.353-.225.294-.159.208-.278.348c-.135.174-.279.347-.423.521l-.273.334c-.16.186-.32.375-.481.565l-.244.285c-.25.285-.504.565-.769.85l-.48.521c-.254.271-.513.536-.777.802l-.437.425c-.293.29-.586.575-.889.86l-.547.483c-.278.256-.552.507-.835.758l-.61.517-.826.7-.139.116-.509.401a38 38 0 0 1-.84.667l-.682.516a54.84 54.84 0 0 1-.854.633l-.058.043-.168.126-.264.179a67.59 67.59 0 0 1-2.218 1.516l-.067.049a82.43 82.43 0 0 1-2.055 1.284l-.24.15-.336.193c-.48.295-1.009.585-1.513.865l-.36.208c-.053.029-.11.053-.163.086-.648.353-1.296.696-1.954 1.029l-.043.024-.245.121c-.552.275-1.104.546-1.661.807l-.23.111-.423.188c-.442.203-.884.401-1.33.594l-.375.169-.312.126c-.48.198-.921.386-1.387.57l-.437.179-.154.057-.115.044a40.79 40.79 0 0 1-4.907-8.969c.13-.044.255-.097.384-.15.677-.256 1.345-.536 2.017-.816l.586-.251c.686-.3 1.368-.604 2.045-.923l.83-.401.86-.42.288-.14.96-.507c.327-.174.653-.348.96-.526l.058-.029.48-.261.759-.43c.456-.256.912-.522 1.358-.792l.274-.174.327-.203c.48-.29.93-.575 1.387-.874h.034l.086-.058c.38-.246.749-.483 1.119-.749l1.09-.758c.33-.232.652-.483.96-.705.307-.222.643-.483.96-.72l.091-.072.615-.483.48-.387.393-.323.413-.343c.284-.232.562-.483.84-.71l.063.029-.063-.034.082-.072c.48-.43.96-.87 1.44-1.319h.025l.052-.053c.284-.266.562-.536.836-.807l.22-.212.221-.218c.317-.318.624-.637.927-.966l.336-.357.389-.425.355-.396.024-.03.245-.284c.168-.188.331-.377.48-.57l.274-.328.427-.522.274-.348.389-.507.259-.348c.125-.169.25-.338.365-.483l.249-.347.351-.517.221-.329a24.368 24.368 0 0 0 .782-1.25l.245-.416v-.024l.336-.604.327-.628.086-.164a32.3 32.3 0 0 0 .293-.594c.134-.28.259-.555.375-.83l.192-.45c.062-.15.12-.304.177-.45v-.052c.12-.314.231-.623.336-.937l.092-.28c.096-.285.177-.565.254-.85.053-.203.106-.406.154-.604 0-.077.033-.155.052-.227.063-.256.116-.517.159-.768s.086-.483.12-.758c.069-.48.112-.964.129-1.45v-1.004c.001-.229-.01-.458-.033-.686l-.029-.338c0-.217-.043-.435-.082-.652 0-.12-.038-.237-.062-.353a7.436 7.436 0 0 0-.182-.874l-.058-.217a2.024 2.024 0 0 0-.072-.242l-.043-.14c-.034-.096-.063-.198-.096-.294a10.418 10.418 0 0 0-.36-.923l4.287 8.728c.125.256.24.521.346.787l.043.097c0 .043.029.087.048.13.019.044.072.203.11.31.039.105.063.192.096.289.034.097.063.208.092.314.028.106.038.116.052.174l.029.125c.029.107.053.208.077.314.024.107.048.208.067.31l.063.318c.019.106.024.126.033.189.01.062 0 .087 0 .125l.043.334c0 .106.024.212.039.318l.029.343v.203a1.03 1.03 0 0 1 0 .111v.367c.163.005.168.126.168.218Z"/><path fill="url(#f)" d="M91.568 95.144a50.014 50.014 0 0 1-9.89 6.762l-.389-.097-.456-.097-.437-.086-.442-.078-.432-.067-.432-.058-.418-.049-.422-.033-.408-.029h-1.229c-.168 0-.332 0-.48.024l-.336.024-.48.053h-.125c.1-.999.353-1.976.749-2.898a7.59 7.59 0 0 1 1.483-2.236 6.11 6.11 0 0 1 .605-.55c.106-.088.211-.175.322-.257.062-.05.128-.094.197-.135l.317-.208a2.09 2.09 0 0 1 .225-.13c.106-.063.216-.12.327-.174l.235-.12.173-.078.172-.072.284-.112.312-.11.24-.078.403-.106.235-.063h.053l.212-.038.25-.049c.083-.02.168-.034.254-.043.1 0 .201-.034.307-.044.269-.034.542-.063.82-.077H85.145c.12 0 .235 0 .355.024s.284 0 .428.034l.413.048.437.058.427.068.22.038.226.04c.144.022.288.05.432.086l.48.102.433.106.48.12c.144.034.293.078.442.121l.24.073.24.072.45.14c.164.048.327.106.481.164l.24.015Z"/><path fill="url(#g)" d="M122.075 131.059v.517a9.601 9.601 0 0 1-.087 1.072 1.737 1.737 0 0 1-.028.227c0 .126-.034.242-.058.362a1.71 1.71 0 0 1-.043.213 1.585 1.585 0 0 1-.053.246 2.312 2.312 0 0 1-.058.246c-.01.053-.023.104-.038.155-.034.126-.072.251-.111.377a3.633 3.633 0 0 1-.158.483 7.691 7.691 0 0 1-1.234 2.202c-.067.087-.139.169-.211.251-.072.082-.13.145-.197.213l-.096.101a8.431 8.431 0 0 1-4.964 2.309.58.58 0 0 1 0-.102l.029-.265c0-.246.028-.483.038-.749V137.7c0-.193-.024-.391-.043-.589-.019-.198-.034-.309-.053-.483a10.523 10.523 0 0 0-.062-.483c-.024-.155-.053-.319-.077-.483-.024-.164-.063-.333-.096-.483-.034-.15-.068-.329-.106-.483-.038-.155-.072-.343-.115-.512a8.44 8.44 0 0 0-.135-.483c-.048-.15-.096-.362-.148-.541-.053-.179-.082-.266-.12-.396a15.726 15.726 0 0 0-.197-.604c-.072-.203-.087-.265-.135-.401a25.693 25.693 0 0 0-.23-.623l-.144-.391a39.02 39.02 0 0 0-.279-.681c-.048-.111-.091-.227-.144-.338a21.068 21.068 0 0 0-.437-.966v-.053a49.068 49.068 0 0 0-.504-1.034l-.177-.338c-.12-.236-.245-.483-.37-.71l-.226-.401c-.115-.207-.23-.42-.355-.628-.125-.207-.206-.357-.317-.541-.11-.183-.225-.376-.341-.565-.115-.188-.221-.362-.336-.541l-.365-.57-.36-.536-.384-.57-.379-.536-.346-.483a45.73 45.73 0 0 0-1.138-1.516c-.052-.063-.105-.126-.153-.193-.36-.459-.735-.913-1.119-1.367l-.269-.324a44.613 44.613 0 0 0-1.296-1.449l-.259-.28c-.399-.43-.807-.86-1.225-1.285-.091-.091-.182-.188-.278-.28-.202-.208-.413-.41-.619-.608l-.481-.454c-.22-.213-.446-.416-.667-.623l-.451-.421-.764-.676c-.134-.111-.259-.227-.393-.343a22.493 22.493 0 0 0-1.186-.966l-.197-.159.058-.044c.288-.207.571-.42.854-.632l.682-.517c.283-.217.562-.44.84-.667l.509-.401.139-.115.826-.701.61-.517c.283-.251.557-.483.835-.758l.548-.483a51.7 51.7 0 0 0 .888-.86l.437-.425c.264-.265.523-.531.777-.801l.106.091c.183.149.365.31.547.483l.389.343.384.334c.13.111.255.227.38.343.124.115.302.275.451.415.149.14.336.314.504.483l.192.183.442.43c.237.222.467.449.691.681l.091.092.111.121c.417.425.826.85 1.229 1.285l.254.265c.442.483.874.966 1.292 1.449.096.106.187.213.273.324.193.225.38.452.562.681.187.227.375.454.552.686l.154.188c.197.246.389.483.576.749.192.251.379.483.562.758.269.362.523.724.773 1.087.185.27.368.541.547.811.048.077.101.15.144.227.125.188.245.377.365.57.12.193.216.338.322.507.105.169.245.401.36.599.115.198.216.362.317.541a28.391 28.391 0 0 1 .576 1.029l.374.71c.061.112.119.223.173.333l.216.43c.12.246.235.483.351.739.115.256.244.531.355.792l.187.444c.048.111.096.227.139.338.044.111.096.232.14.348l.144.386c.076.208.153.411.225.619.048.135.096.27.14.405l.192.599c.062.198.081.266.124.396.044.131.072.251.106.377l.115.425.058.242c.043.173.081.343.12.512.038.169.072.328.105.483a9.9 9.9 0 0 1 .092.483c0 .082.029.159.043.241.029.164.053.328.072.483.019.155.053.415.072.618 0 .082 0 .169.024.251 0 .237.034.483.043.706.01.222-.014.357-.014.555Z"/><path fill="url(#h)" d="M128.619 141.409a10.061 10.061 0 0 1-2.06 3.057 3.933 3.933 0 0 1-.288.275 3.495 3.495 0 0 1-.211.193l-.188.155a7.147 7.147 0 0 1-.432.338c-.149.106-.173.121-.259.184l-.422.275a6.026 6.026 0 0 1-.293.169l-.432.237-.317.149c-.149.073-.298.14-.452.203l-.331.131c-.16.061-.32.119-.48.173l-.163.054-.168.053-.543.149-.312.078-.192.043-.158.029a14.317 14.317 0 0 1-1.402.218l-.322.033c-.269 0-.542.039-.821.049H116.318l-.393-.029-.562-.049a2.52 2.52 0 0 1-.274-.029l-.278-.033-.288-.034-.288-.039h-.116l-.451-.072-.59-.102-.577-.116-.388-.082-.217-.048-.307-.073-.269-.067-.624-.16-.624-.173-.384-.116a18.341 18.341 0 0 1-.48-.145l-.379-.121-.649-.212-.604-.218-.481-.188a1.073 1.073 0 0 1-.124-.044l-.769-.299-.076-.034c-.173-.063-.341-.135-.514-.208a26.875 26.875 0 0 1-.792-.338c-.264-.116-.389-.169-.581-.26l-.831-.387-.562-.27-.917-.483-.168-.087-.48-.242-.23-.125-.898-.483-.101-.058-.374-.218-.36-.202-.36-.213-.087-.048-.504-.305-.778-.492-.48-.314-.83-.541-.48-.309a44.583 44.583 0 0 1-.985-.676l-.062-.044-.245-.164-.403-.29-.888-.647a6.98 6.98 0 0 1-.322-.242c-.317-.231-.63-.483-.96-.714l-.072-.058c-.236-.179-.48-.358-.697-.546-.216-.189-.518-.406-.773-.618a73.15 73.15 0 0 1-1.574-1.319l-.504-.444c-.346-.3-.687-.599-1.023-.903-.1-.092-.202-.179-.298-.276l-.292-.27c-.303-.28-.6-.556-.893-.836l-.37-.352-.245-.247a43.164 43.164 0 0 1-.826-.806 96.175 96.175 0 0 1-1.205-1.232l-.024-.024-.053-.063-.48-.526-.566-.58c0-.029-.048-.053-.072-.082-.341-.372-.672-.749-.999-1.125l-.48-.57a.76.76 0 0 1-.058-.063c-.144-.169-.288-.343-.437-.512-.22-.266-.45-.531-.667-.797-.36-.439-.71-.879-1.056-1.319l-.25-.328c-.134-.169-.26-.338-.389-.507l-.384-.507c-.11-.15-.216-.3-.326-.445l-.596-.825a16.431 16.431 0 0 1-.48-.706l-.067-.096a25.9 25.9 0 0 1-.634-.966l-.283-.425-.274-.43-.23-.357c-.149-.228-.288-.455-.427-.682-.14-.227-.332-.55-.48-.825a64.107 64.107 0 0 1-1.143-2.01 15.972 15.972 0 0 1-.48-.941c-.082-.15-.154-.295-.226-.44-.173-.343-.643-1.323-.667-1.372a1.032 1.032 0 0 1-.048-.106l-.312-.676c-.12-.271-.236-.536-.346-.807a3.337 3.337 0 0 0-.096-.227l-.365-.898-.197-.522c-.1-.275-.201-.545-.297-.821a21.543 21.543 0 0 1-.183-.536l-.057-.169a4.088 4.088 0 0 1-.077-.232c-.024-.077-.087-.265-.125-.391l-.159-.526a4.708 4.708 0 0 1-.1-.363c-.039-.12-.068-.236-.101-.357l-.1-.382-.073-.285c0-.091-.043-.188-.067-.28a26.402 26.402 0 0 1-.456-2.352c-.034-.222-.058-.435-.087-.652a15.255 15.255 0 0 1-.067-.623c-.02-.208-.043-.522-.057-.782v-2.082c0-.164 0-.328.033-.483.034-.155 0-.237.034-.353.024-.217.048-.44.081-.656a.197.197 0 0 1 0-.054c0-.125.043-.256.063-.381.019-.126.043-.222.062-.329l.072-.323a13.272 13.272 0 0 1 .322-1.183c0-.049.029-.102.048-.15.019-.049.033-.102.058-.155.023-.053.038-.12.062-.183a10.45 10.45 0 0 1 .883-1.826c.072-.12.144-.242.226-.358.082-.115.106-.164.163-.241l.202-.275.062-.082c.072-.092.144-.184.221-.27.077-.088.173-.204.264-.3 4.696-5.154 14.509-4.55 25.393 1.193-.389.483-.802.937-1.234 1.405a39.79 39.79 0 0 1-2.924 2.835l-.245-.082a14.207 14.207 0 0 0-.48-.164l-.451-.14-.24-.073-.24-.072a8.61 8.61 0 0 0-.442-.12 13.603 13.603 0 0 0-.902-.228l-.48-.101a5.115 5.115 0 0 0-.433-.087l-.225-.039-.221-.038a4.597 4.597 0 0 0-.427-.068 13.625 13.625 0 0 0-.85-.106c-.144 0-.284-.03-.428-.034-.144-.005-.235 0-.355-.024h-1.858c-.278 0-.552.043-.82.077-.106 0-.207.024-.308.044a2.15 2.15 0 0 0-.254.043c-.159.024-.308.053-.48.087h-.053a8.833 8.833 0 0 0-.639.169c-.077 0-.158.048-.24.077a3.395 3.395 0 0 0-.312.111l-.283.111-.173.073-.173.077a4.773 4.773 0 0 0-.562.295 2.1 2.1 0 0 0-.225.13c-.11.062-.216.131-.317.208-.069.04-.135.086-.197.135-.11.082-.221.164-.322.256a6.07 6.07 0 0 0-.605.55 7.588 7.588 0 0 0-1.483 2.237 9.828 9.828 0 0 0-.75 2.898c-.12 1.124-.105 2.26.044 3.381.306 1.75.72 3.479 1.239 5.177a40.801 40.801 0 0 0 4.743 9.023A57.952 57.952 0 0 0 92.385 131c8.186 6.67 16.564 9.815 22.325 9.008a8.435 8.435 0 0 0 4.964-2.294l.096-.102c.067-.067.135-.14.197-.212.062-.073.144-.164.211-.251a7.698 7.698 0 0 0 1.234-2.203c.064-.157.117-.318.159-.483.043-.12.076-.246.11-.376a1.4 1.4 0 0 0 .038-.155c.024-.081.043-.163.058-.246.025-.081.042-.163.053-.247.019-.069.033-.14.043-.212.024-.121.043-.237.058-.362a1.93 1.93 0 0 0 .029-.227 9.98 9.98 0 0 0 .115-1.063v-1.13c0-.203-.024-.483-.043-.705 0-.082 0-.169-.024-.251 0-.203-.044-.411-.072-.619-.029-.207-.044-.323-.073-.483 0-.082-.024-.159-.043-.241a6.484 6.484 0 0 0-.091-.483c-.034-.15-.067-.329-.106-.483-.052-.251-.11-.483-.177-.754l-.115-.425c-.034-.125-.068-.251-.106-.376a21.525 21.525 0 0 0-.317-.995 4.232 4.232 0 0 0-.139-.406 18.387 18.387 0 0 0-.37-1.005c-.043-.116-.091-.231-.139-.347-.048-.116-.091-.227-.139-.339l-.188-.444c-.11-.261-.23-.526-.355-.792-.125-.266-.23-.483-.35-.739l-.216-.43a7 7 0 0 0-.173-.333c-.115-.238-.24-.475-.375-.71a31.632 31.632 0 0 0-.576-1.029 23.423 23.423 0 0 0-.317-.541c-.11-.183-.235-.396-.36-.599a35.094 35.094 0 0 0-.686-1.077c-.043-.077-.096-.149-.144-.227-.18-.27-.362-.541-.548-.811a36.386 36.386 0 0 0-.773-1.087 26.92 26.92 0 0 0-.561-.758c-.188-.251-.38-.483-.576-.749l-.154-.188c-.178-.232-.36-.459-.552-.686-.192-.227-.37-.454-.562-.681a5.875 5.875 0 0 0-.274-.324 49.455 49.455 0 0 0-1.291-1.449 67.156 67.156 0 0 0-1.594-1.671l-.058-.062-.033-.029a19.344 19.344 0 0 0-.692-.681c-.144-.15-.292-.29-.441-.43l-.192-.184a33.727 33.727 0 0 0-.961-.879 11.264 11.264 0 0 0-.379-.343 24.106 24.106 0 0 0-.773-.676l-.547-.483-.106-.092.48-.521c.264-.285.519-.565.769-.85l.244-.285c.17-.19.33-.379.48-.565l.274-.334c.144-.174.288-.348.423-.521l.278-.348.159-.208c15.574 13.355 24.562 31.757 20.198 41.692Z"/><path fill="url(#i)" d="m126.654 144.374-7.273 7.53a9.439 9.439 0 0 1-.591.56 2.263 2.263 0 0 1-.211.169 9.876 9.876 0 0 1-.428.343l-.264.179a6.39 6.39 0 0 1-.417.275l-.293.174-.432.232-.317.154-.456.198-.331.136-.481.169-.331.111-.547.145-.312.082h-.072l-.279.048c-.221.048-.441.092-.667.126l-.408.053a13.93 13.93 0 0 1-.644.072l-.446.034c-.216 0-.437.024-.658.029h-1.647l-.537-.034-.562-.048-.552-.063-.576-.077-.572-.087-.585-.106a13.259 13.259 0 0 1-.581-.116l-.379-.078-.226-.053-.576-.14-.624-.159-.586-.164-.634-.189c-.202-.058-.398-.125-.6-.188l-.643-.217-.61-.213-.35-.126-.274-.106-.773-.304-.586-.237-.797-.343-.58-.256-.836-.391-.552-.266a16.271 16.271 0 0 1-.922-.483c-.14-.072-.279-.135-.418-.212l-.072-.039-.374-.198a48.5 48.5 0 0 1-.893-.483l-.48-.27-.802-.483-.51-.304-.791-.483c-.168-.107-.336-.208-.48-.319a42.797 42.797 0 0 1-.826-.536l-.48-.309c-.327-.223-.653-.445-.96-.677l-.313-.212c-.427-.304-.859-.614-1.291-.932l-.322-.247c-.273-.202-.542-.4-.811-.608l-.13-.102a79.212 79.212 0 0 1-3.116-2.54 7.24 7.24 0 0 1-.48-.44c-.34-.304-.686-.603-1.027-.912l-.59-.546c-.298-.276-.6-.551-.894-.831l-.672-.584c-.273-.271-.552-.537-.82-.812a1.83 1.83 0 0 1-.14-.135c-.36-.362-.715-.729-1.066-1.096l-.082-.083a85.414 85.414 0 0 1-1.113-1.197c-.125-.136-.245-.276-.365-.411a44.767 44.767 0 0 1-.816-.918l-.375-.429c-.288-.343-.576-.681-.86-1.024l-.249-.3c-.355-.435-.71-.879-1.051-1.318-.087-.107-.168-.218-.255-.329-.26-.333-.518-.676-.768-1.014l-.331-.444-.293-.401-.298-.42-.48-.715-.514-.754-.48-.715c-.163-.251-.321-.483-.48-.753-.158-.271-.302-.483-.446-.715-.144-.232-.308-.483-.456-.749-.15-.265-.284-.482-.418-.714l-.14-.237-.023-.043-.312-.556-.293-.531a15.127 15.127 0 0 1-.48-.966l-.23-.44a61.95 61.95 0 0 1-.716-1.473 47.16 47.16 0 0 1-.514-1.149c0-.039-.029-.073-.048-.111l-.187-.454c-.125-.3-.25-.599-.365-.899-.067-.174-.134-.343-.197-.517-.105-.275-.206-.55-.302-.821l-.183-.536c-.072-.227-.365-1.149-.418-1.323-.024-.092-.057-.184-.081-.275l-.115-.44a25.475 25.475 0 0 1-.332-1.347c-.048-.218-.096-.435-.139-.653a27.142 27.142 0 0 1-.125-.666 17.215 17.215 0 0 1-.1-.638c-.03-.212-.063-.434-.087-.652-.024-.217-.053-.415-.072-.618v-.198c0-.198-.024-.391-.038-.584-.015-.193 0-.242 0-.358 0-.381-.024-.758 0-1.125a.71.71 0 0 1 0-.101c0-.339 0-.667.048-.991 0-.116.024-.231.038-.347.024-.242.048-.483.086-.71 0-.131.039-.256.063-.387.038-.217.082-.434.13-.647l.086-.372c.058-.222.125-.439.192-.657a11.658 11.658 0 0 1 .447-1.227 10.025 10.025 0 0 1 1.968-2.965l7.178-7.438-.087.101a3.812 3.812 0 0 0-.264.3c-.077.087-.149.179-.22.27l-.063.082-.202.276a4.25 4.25 0 0 0-.163.241c-.053.082-.154.237-.226.358a10.449 10.449 0 0 0-.883 1.825c0 .063-.043.121-.063.184-.019.063-.038.101-.057.154a2.68 2.68 0 0 0-.048.15c-.013.052-.03.104-.048.155a10.32 10.32 0 0 0-.346 1.352c0 .106-.043.217-.062.329-.02.11-.043.255-.063.381a.197.197 0 0 0 0 .053c-.033.218-.057.44-.081.657 0 .116-.024.232-.034.353-.01.12-.024.323-.034.483V99.403c0 .26.02.522.058.783 0 .207.043.415.067.623a26.695 26.695 0 0 0 .312 1.956c.068.347.15.695.23 1.048.025.092.044.188.068.28l.072.285.1.381c.034.121.063.237.102.358.038.121.062.241.1.362l.13.498c.038.125.082.26.125.391l.072.232c.168.507.346 1.014.543 1.526l.196.521.365.899c.034.072.067.15.096.227.11.27.226.536.346.806.12.271.854 1.812 1.027 2.155.072.144.144.289.226.439.163.314.326.628.48.942.154.314.355.642.538.966.077.135.149.27.225.401.125.217.25.43.38.642.13.213.321.551.48.826.158.275.278.454.427.681l.23.357.274.43.284.425c.21.319.417.633.633.966l.067.097c.159.237.327.483.48.705l.596.826c.11.145.216.295.326.444l.385.507c.13.17.254.339.388.508l.25.328c.346.44.696.879 1.056 1.319.216.265.447.531.668.797.148.169.293.342.437.511a.527.527 0 0 0 .057.063c.1.126.207.247.317.372l.178.198c.326.377.657.754.998 1.126.024.029.053.053.072.082l.548.589.552.589.024.024c.393.411.797.821 1.205 1.232.408.41.706.705 1.07 1.053l.37.352c.293.285.59.566.893.836l.293.27c.096.097.197.184.298.276.504.459 1.008.903 1.526 1.347.519.445 1.042.884 1.575 1.319.255.212.514.415.773.618.26.203.48.367.696.546l.072.058c.317.241.63.483.96.715.106.082.212.164.322.241l.888.647.404.29.245.164.062.044c.326.232.658.459.984.676l.48.309.83.541.48.314.798.483.504.304.086.049.36.212.36.203.375.217.101.058.898.483.23.126.139.077.327.164.168.087.917.483.562.271.83.386c.192.092.389.174.581.261.192.087.528.232.792.338.173.072.341.145.514.208l.077.033.768.3c.041.017.082.031.125.043l.48.189.605.217.648.213.379.12.216.073.25.072.384.116.591.164.624.16.269.067.307.073.216.048.389.082.576.116.59.102.452.072h.115l.288.039c.192.029.379.048.567.067.09.015.182.024.273.029l.562.049.394.029H118.295c.279 0 .553-.025.821-.049l.322-.034c.25 0 .48-.058.735-.096.254-.039.557-.092.825-.15l.193-.043.312-.078.542-.149.168-.053.163-.054c.168-.053.332-.106.48-.173l.332-.131a8.61 8.61 0 0 0 .768-.352l.432-.237c.101-.053.197-.111.293-.169l.422-.275c.09-.057.176-.119.26-.184.148-.106.293-.222.432-.338l.187-.155c.072-.062.144-.125.211-.193.101-.087.197-.179.288-.275l.173-.063Z"/><path fill="url(#j)" d="M147.4 72v83.874L83.4 179V95.126L147.4 72Z"/><path fill="url(#k)" d="M83.4 95.126V179l-65-23.126V72l65 23.126Z"/><g filter="url(#l)" style="mix-blend-mode:color-dodge"><ellipse cx="7.838" cy="7.87" fill="url(#m)" fill-opacity=".85" rx="7.838" ry="7.87" transform="matrix(-1 0 0 1 121.051 43.13)"/></g><ellipse cx="113.433" cy="50.45" fill="url(#n)" rx="11.895" ry="11.943"/><g filter="url(#o)"><path fill="url(#p)" d="m113.189 55.004-2.039-4.095 2.039-4.095 2.04 4.095-2.04 4.095Z"/></g><circle cx="92.9" cy="25.5" r="4.5" fill="url(#q)" opacity=".8"/><circle cx="51.4" cy="43" r="8" fill="url(#r)"/><defs><linearGradient id="a" x1="82.9" x2="82.9" y1="49" y2="95" gradientUnits="userSpaceOnUse"><stop stop-color="#2E1D63"/><stop offset="1" stop-color="#0E094B"/></linearGradient><linearGradient id="b" x1="73.624" x2="73.624" y1="68.754" y2="105.126" gradientUnits="userSpaceOnUse"><stop stop-color="#D665FF"/><stop offset="1" stop-color="#9E5CFD"/></linearGradient><linearGradient id="c" x1="50.434" x2="102.163" y1="111.49" y2="65.253" gradientUnits="userSpaceOnUse"><stop stop-color="#F0D1FF"/><stop offset="1" stop-color="#DD9CFE"/></linearGradient><linearGradient id="d" x1="42.063" x2="65.431" y1="114.587" y2="122.492" gradientUnits="userSpaceOnUse"><stop stop-color="#9E62FE"/><stop offset="1" stop-color="#522B91"/></linearGradient><linearGradient id="e" x1="76.867" x2="116.639" y1="112.817" y2="81.567" gradientUnits="userSpaceOnUse"><stop stop-color="#5E4DBD"/><stop offset="1" stop-color="#442685"/></linearGradient><linearGradient id="f" x1="79.951" x2="85.711" y1="92.029" y2="101.297" gradientUnits="userSpaceOnUse"><stop stop-color="#6060F1"/><stop offset="1" stop-color="#4444BA"/></linearGradient><linearGradient id="g" x1="109.711" x2="109.711" y1="103.389" y2="140.033" gradientUnits="userSpaceOnUse"><stop stop-color="#4547BE"/><stop offset="1" stop-color="#301C82"/></linearGradient><linearGradient id="h" x1="98.642" x2="119.754" y1="86.192" y2="151.25" gradientUnits="userSpaceOnUse"><stop stop-color="#71A7F9"/><stop offset="1" stop-color="#4270F8"/></linearGradient><linearGradient id="i" x1="60.126" x2="93.642" y1="115.029" y2="127.767" gradientUnits="userSpaceOnUse"><stop stop-color="#ADD4FB"/><stop offset="1" stop-color="#57A4FF"/></linearGradient><linearGradient id="j" x1="124.064" x2="115.082" y1="78.529" y2="172.779" gradientUnits="userSpaceOnUse"><stop stop-color="#A181FF" stop-opacity=".34"/><stop offset=".313" stop-color="#0C0D14" stop-opacity="0"/><stop offset=".628" stop-color="#3B26BC" stop-opacity=".471"/><stop offset="1" stop-color="#654EF1" stop-opacity=".65"/></linearGradient><linearGradient id="k" x1="59.463" x2="33.808" y1="172.804" y2="77.192" gradientUnits="userSpaceOnUse"><stop stop-color="#92C8FF" stop-opacity=".73"/><stop offset=".624" stop-color="#4D78FF" stop-opacity="0"/><stop offset="1" stop-color="#316BFF" stop-opacity=".4"/></linearGradient><linearGradient id="n" x1="105.379" x2="119.58" y1="40.498" y2="60.722" gradientUnits="userSpaceOnUse"><stop stop-color="#9887FF" stop-opacity=".44"/><stop offset=".241" stop-color="#48229E" stop-opacity="0"/><stop offset=".457" stop-color="#5527B6" stop-opacity="0"/><stop offset="1" stop-color="#E4CEFF" stop-opacity=".13"/></linearGradient><linearGradient id="p" x1="113.189" x2="113.189" y1="55.004" y2="46.814" gradientUnits="userSpaceOnUse"><stop stop-color="#79DFFF"/><stop offset="1" stop-color="#FEB5FF"/></linearGradient><radialGradient id="m" cx="0" cy="0" r="1" gradientTransform="matrix(-8.22992 -6.29566 6.30235 -8.23865 7.446 7.083)" gradientUnits="userSpaceOnUse"><stop offset=".017" stop-color="#CB5CFF" stop-opacity=".9"/><stop offset=".803" stop-color="#2926A9" stop-opacity="0"/></radialGradient><radialGradient id="q" cx="0" cy="0" r="1" gradientTransform="rotate(66.801 28.548 79.8) scale(8.56774)" gradientUnits="userSpaceOnUse"><stop stop-color="#A2CDFC"/><stop offset="1" stop-color="#39349A"/></radialGradient><radialGradient id="r" cx="0" cy="0" r="1" gradientTransform="rotate(66.801 -4.356 54.442) scale(15.2315)" gradientUnits="userSpaceOnUse"><stop offset=".105" stop-color="#F2D8FF"/><stop offset=".618" stop-color="#8A44CF"/><stop offset="1" stop-color="#472AA9"/></radialGradient><filter id="l" width="42.548" height="42.611" x="91.939" y="29.695" color-interpolation-filters="sRGB" filterUnits="userSpaceOnUse"><feFlood flood-opacity="0" result="BackgroundImageFix"/><feBlend in="SourceGraphic" in2="BackgroundImageFix" result="shape"/><feGaussianBlur result="effect1_foregroundBlur_514_1504" stdDeviation="6.718"/></filter><filter id="o" width="17.439" height="21.55" x="104.47" y="40.133" color-interpolation-filters="sRGB" filterUnits="userSpaceOnUse"><feFlood flood-opacity="0" result="BackgroundImageFix"/><feColorMatrix in="SourceAlpha" result="hardAlpha" values="0 0 0 0 0 0 0 0 0 0 0 0 0 0 0 0 0 0 127 0"/><feOffset/><feGaussianBlur stdDeviation="3.34"/><feComposite in2="hardAlpha" operator="out"/><feColorMatrix values="0 0 0 0 0.6425 0 0 0 0 0.1875 0 0 0 0 1 0 0 0 1 0"/><feBlend in2="BackgroundImageFix" result="effect1_dropShadow_514_1504"/><feBlend in="SourceGraphic" in2="effect1_dropShadow_514_1504" result="shape"/></filter></defs></svg>