<svg xmlns="http://www.w3.org/2000/svg" width="214" height="181" fill="none"><ellipse cx="120" cy="165.871" fill="url(#a)" rx="63.973" ry="15.129" style="mix-blend-mode:hard-light"/><path fill="url(#b)" d="M210.921 144.982c0 11.891-40.707 21.531-90.921 21.531-50.214 0-90.92-9.64-90.92-21.531 0-11.892 40.706-21.532 90.92-21.532s90.921 9.64 90.921 21.532Z" style="mix-blend-mode:hard-light"/><path stroke="url(#c)" stroke-width="1.25" d="M210.296 144.982c0 2.599-2.245 5.271-6.825 7.836-4.529 2.535-11.122 4.839-19.324 6.781-16.394 3.882-39.074 6.29-64.147 6.29-25.073 0-47.753-2.408-64.147-6.29-8.202-1.942-14.795-4.246-19.324-6.781-4.58-2.565-6.825-5.237-6.825-7.836s2.245-5.272 6.825-7.836c4.529-2.535 11.122-4.839 19.324-6.781 16.394-3.883 39.074-6.29 64.147-6.29 25.073 0 47.753 2.407 64.147 6.29 8.202 1.942 14.795 4.246 19.324 6.781 4.58 2.564 6.825 5.237 6.825 7.836Z" style="mix-blend-mode:hard-light"/><g opacity=".74"><path fill="url(#d)" fill-opacity=".4" d="M77.422 114.033c14.25-14.25 14.25-37.352 0-51.602-14.25-14.249-37.352-14.249-51.602 0-14.249 14.25-14.249 37.353 0 51.602 14.25 14.25 37.353 14.249 51.602 0Z"/><path fill="url(#e)" d="M21.964 66.977c-11.74 16.38-7.978 39.174 8.402 50.913 16.38 11.739 39.174 7.977 50.913-8.402 11.739-16.38 7.977-39.174-8.402-50.913-16.38-11.739-39.174-7.977-50.913 8.402Z"/></g><path fill="url(#f)" d="M77.962 80.388C73.428 66.11 58.179 58.21 43.902 62.744c-14.278 4.533-22.177 19.783-17.644 34.06 4.533 14.278 19.783 22.177 34.06 17.644 14.278-4.534 22.177-19.783 17.644-34.06Z" style="mix-blend-mode:color-dodge"/><path fill="url(#g)" d="m42.28 76.193 9.171-5.339 9.171 5.339-3.371 1.972-5.8-3.367-5.799 3.367-3.371-1.972Zm18.342 6.732-3.371-1.972-5.8 3.366-5.799-3.366-3.371 1.972v3.944l5.799 3.366v6.732l3.371 1.972 3.372-1.972v-6.732l5.8-3.366v-3.944Zm0 10.676v-3.944l-3.371 1.972v3.944l3.371-1.972Zm2.394 1.394-5.8 3.366v3.945l9.172-5.339V86.291l-3.372 1.972v6.732ZM59.645 79.56l3.371 1.972v3.944l3.372-1.972v-3.944l-3.372-1.972-3.371 1.972ZM48.08 99.789v3.945l3.371 1.972 3.372-1.972V99.79l-3.372 1.972-3.371-1.972Zm-5.8-6.188 3.372 1.972V91.63l-3.371-1.972v3.944Zm5.8-14.042 3.371 1.972 3.372-1.972-3.372-1.972-3.371 1.972Zm-8.193 1.972 3.371-1.972-3.371-1.972-3.372 1.972v3.944l3.372 1.972V81.53Zm0 6.732-3.372-1.972v10.676l9.17 5.339v-3.945l-5.798-3.366v-6.732Z"/><g opacity=".74"><path fill="url(#h)" fill-opacity=".4" d="M135.237 77.103c14.049-5.098 21.305-20.62 16.207-34.67-5.098-14.048-20.62-21.305-34.67-16.206-14.049 5.098-21.305 20.62-16.207 34.67 5.099 14.048 20.621 21.304 34.67 16.206Z"/><path fill="url(#i)" d="M112.607 27.986c-13.102 7.357-17.759 23.942-10.402 37.044 7.358 13.102 23.943 17.759 37.045 10.401 13.101-7.357 17.758-23.942 10.401-37.044-7.357-13.102-23.943-17.759-37.044-10.401Z"/></g><g opacity=".5"><path fill="#1A1B4B" d="m128.792 50.583 1.776-3.015 4.789 7.459.002 1.43-.016-9.848a.74.74 0 0 0-.343-.591l-8.621-4.96a.76.76 0 0 0-.736.048l-.03.02-8.368 4.849-.032.014a.738.738 0 0 0-.433.63l.013 8.026 4.461-6.913c.561-.916 1.785-1.212 2.92-1.196l1.334.035-7.855 12.597.926.533 7.949-13.117 3.513-.013-7.928 13.448 3.304 1.9.394.227a.759.759 0 0 0 .532.01l8.743-5.066-1.672.969-4.622-7.476Zm.677 9.762-3.336-5.237 2.037-3.457 4.382 6.908-3.083 1.786Z"/><path fill="#9DBEFD" d="m126.132 55.108 3.337 5.237 3.083-1.786-4.383-6.907-2.037 3.456ZM135.359 56.458l-.002-1.43-4.789-7.46-1.776 3.015 4.622 7.477 1.672-.969a.738.738 0 0 0 .273-.54v-.093ZM115.293 57.808l2.36 1.36 7.855-12.596-1.334-.035c-1.135-.016-2.359.279-2.92 1.196l-4.461 6.913-1.5 2.305v.857ZM130.041 46.572l-3.514.013-7.948 13.116 2.778 1.6.756-1.282 7.928-13.447Z"/><path fill="#9DBEFD" d="M136.839 46.554a2.237 2.237 0 0 0-1.05-1.8l-8.734-5.022a2.272 2.272 0 0 0-2.004 0c-.073.037-8.494 4.92-8.494 4.92a2.222 2.222 0 0 0-1.264 1.897v10.402l1.5-2.305-.013-8.026a.738.738 0 0 1 .309-.558c.04-.029 8.604-4.986 8.631-5a.76.76 0 0 1 .659-.003L135 46.02a.74.74 0 0 1 .343.59v9.943a.723.723 0 0 1-.258.539l-1.671.968-.862.5-3.083 1.787-3.126 1.811a.757.757 0 0 1-.532-.01l-3.698-2.127-.756 1.28 3.324 1.914.288.163c.124.07.209.117.239.131.236.115.576.182.883.182.28 0 .554-.052.813-.153l9.08-5.258a2.218 2.218 0 0 0 .855-1.673V46.554Z"/></g><path fill="url(#j)" d="M145.58 45.539c-3.433-10.812-14.981-16.795-25.793-13.361-10.813 3.433-16.795 14.98-13.362 25.793 3.433 10.812 14.981 16.794 25.793 13.361 10.813-3.433 16.795-14.98 13.362-25.793Z" style="mix-blend-mode:color-dodge"/><g opacity=".8"><g opacity=".92"><g opacity=".74"><path fill="url(#k)" fill-opacity=".4" d="M163.69 135.895c11.202-11.203 11.202-29.365 0-40.567-11.202-11.203-29.365-11.203-40.567 0-11.202 11.202-11.202 29.364 0 40.567 11.202 11.202 29.365 11.202 40.567 0Z"/><path fill="url(#l)" d="M119.933 99.212c-9.229 12.876-6.271 30.796 6.605 40.025 12.877 9.229 30.797 6.271 40.026-6.605 9.228-12.877 6.271-30.797-6.606-40.026-12.876-9.229-30.796-6.271-40.025 6.606Z"/></g></g><path fill="#DEF9FF" fill-opacity=".9" d="M143.165 123.697v7.442l9.158-12.86-9.158 5.418Z"/><path fill="#B9ECFF" fill-opacity=".7" d="M143.165 112.215v9.579l9.158-5.419-9.158-4.16Z"/><path fill="#DDF9FF" fill-opacity=".9" d="M143.165 101.186v11.028l9.158 4.16-9.158-15.188Z"/><path fill="#DEF9FF" d="M143.165 123.697v7.442l-9.159-12.86 9.159 5.418Z"/><path fill="#D7F4FF" fill-opacity=".9" d="M143.165 112.215v9.579l-9.159-5.419 9.159-4.16Z"/><path fill="#EEFFFE" d="M143.165 101.187v11.028l-9.159 4.16 9.159-15.188Z"/><path fill="url(#m)" d="M164.863 109.397c-3.711-11.69-16.195-18.156-27.884-14.445-11.689 3.712-18.156 16.196-14.445 27.885 3.712 11.689 16.196 18.156 27.885 14.444 11.689-3.711 18.156-16.195 14.444-27.884Z" style="mix-blend-mode:color-dodge"/></g><circle cx="192.308" cy="73.576" r="20.724" fill="url(#n)"/><path fill="url(#o)" fill-rule="evenodd" d="M185.694 74.017a2.646 2.646 0 1 1-5.292 0 2.646 2.646 0 0 1 5.292 0Zm8.818 0a2.645 2.645 0 1 1-5.29.001 2.645 2.645 0 0 1 5.29 0Zm6.174 2.646a2.645 2.645 0 1 0 0-5.29 2.645 2.645 0 0 0 0 5.29Z" clip-rule="evenodd" style="mix-blend-mode:color-dodge"/><defs><radialGradient id="d" cx="0" cy="0" r="1" gradientTransform="rotate(31.679 -95.77 32.98) scale(98.1131 98.0153)" gradientUnits="userSpaceOnUse"><stop offset=".286" stop-color="#7544FF" stop-opacity=".8"/><stop offset=".552" stop-color="#6A3BF0" stop-opacity=".54"/><stop offset=".854" stop-color="#5549DF" stop-opacity=".24"/><stop offset="1" stop-color="#1D1A87" stop-opacity=".12"/></radialGradient><radialGradient id="e" cx="0" cy="0" r="1" gradientTransform="matrix(-79.2853 -36.8131 36.75802 -79.16667 93.436 112.478)" gradientUnits="userSpaceOnUse"><stop stop-color="#A882FA"/><stop offset=".542" stop-color="#2900CC" stop-opacity=".1"/><stop offset=".734" stop-color="#010A25" stop-opacity=".22"/></radialGradient><radialGradient id="f" cx="0" cy="0" r="1" gradientTransform="matrix(-19.14963 -67.9267 93.99712 -26.4993 66.875 122.614)" gradientUnits="userSpaceOnUse"><stop stop-color="#46465C"/><stop offset="1"/></radialGradient><radialGradient id="h" cx="0" cy="0" r="1" gradientTransform="rotate(56.734 38.703 103.18) scale(72.7662 72.6937)" gradientUnits="userSpaceOnUse"><stop offset=".286" stop-color="#4478FF" stop-opacity=".8"/><stop offset=".552" stop-color="#6A3BF0" stop-opacity=".54"/><stop offset=".854" stop-color="#5549DF" stop-opacity=".24"/><stop offset="1" stop-color="#1D1A87" stop-opacity=".12"/></radialGradient><radialGradient id="i" cx="0" cy="0" r="1" gradientTransform="rotate(-130.039 92.195 6.514) scale(65.1811 65.0836)" gradientUnits="userSpaceOnUse"><stop stop-color="#828EFA"/><stop offset=".542" stop-color="#03C" stop-opacity=".1"/><stop offset=".734" stop-color="#010A25" stop-opacity=".22"/></radialGradient><radialGradient id="j" cx="0" cy="0" r="1" gradientTransform="matrix(-25.04623 -54.66538 39.75881 -18.21644 158.065 61.161)" gradientUnits="userSpaceOnUse"><stop stop-color="#8081AA"/><stop offset="1" stop-color="#262736"/></radialGradient><radialGradient id="k" cx="0" cy="0" r="1" gradientTransform="rotate(31.679 -105.38 230.26) scale(77.1322 77.0552)" gradientUnits="userSpaceOnUse"><stop offset=".286" stop-color="#4478FF" stop-opacity=".8"/><stop offset=".552" stop-color="#6A3BF0" stop-opacity=".54"/><stop offset=".854" stop-color="#5549DF" stop-opacity=".24"/><stop offset="1" stop-color="#1D1A87" stop-opacity=".12"/></radialGradient><radialGradient id="l" cx="0" cy="0" r="1" gradientTransform="rotate(-155.094 102.965 48.045) scale(68.7217 68.6188)" gradientUnits="userSpaceOnUse"><stop stop-color="#828EFA"/><stop offset=".542" stop-color="#03C" stop-opacity=".1"/><stop offset=".734" stop-color="#010A25" stop-opacity=".22"/></radialGradient><radialGradient id="m" cx="0" cy="0" r="1" gradientTransform="rotate(-144.429 113.557 18.937) scale(77.3529 56.2597)" gradientUnits="userSpaceOnUse"><stop stop-color="#A5A7E3"/><stop offset="1"/></radialGradient><linearGradient id="a" x1="97.833" x2="86.54" y1="187.11" y2="109.952" gradientUnits="userSpaceOnUse"><stop stop-color="#A7DAFF" stop-opacity=".4"/><stop offset=".568" stop-color="#8776B6" stop-opacity=".24"/><stop offset="1" stop-color="#0D0B12" stop-opacity="0"/></linearGradient><linearGradient id="b" x1="88.495" x2="72.401" y1="175.21" y2="65.403" gradientUnits="userSpaceOnUse"><stop stop-color="#AEA7FF" stop-opacity=".12"/><stop offset=".412" stop-color="#9F6DF0" stop-opacity=".04"/><stop offset="1" stop-color="#0D0B12" stop-opacity="0"/></linearGradient><linearGradient id="c" x1="115.454" x2="115.454" y1="166.513" y2="127.757" gradientUnits="userSpaceOnUse"><stop stop-color="#D1FAFF"/><stop offset="1" stop-color="#74BCFF" stop-opacity=".04"/></linearGradient><linearGradient id="g" x1="59.625" x2="44.411" y1="105.706" y2="70.854" gradientUnits="userSpaceOnUse"><stop stop-color="#FFE6FC"/><stop offset="1" stop-color="#8976FF" stop-opacity=".56"/></linearGradient><linearGradient id="n" x1="178.276" x2="202.886" y1="56.306" y2="91.494" gradientUnits="userSpaceOnUse"><stop stop-color="#9887FF" stop-opacity=".44"/><stop offset=".241" stop-color="#48229E" stop-opacity="0"/><stop offset=".457" stop-color="#5527B6" stop-opacity="0"/><stop offset="1" stop-color="#E4CEFF" stop-opacity=".13"/></linearGradient><linearGradient id="o" x1="196.423" x2="180.402" y1="91.312" y2="42.645" gradientUnits="userSpaceOnUse"><stop stop-color="#D4D1FF"/><stop offset=".793" stop-color="#BBB5F4" stop-opacity="0"/></linearGradient></defs></svg>