<svg xmlns="http://www.w3.org/2000/svg" width="120" height="140" fill="none"><path stroke="#74C0D8" stroke-miterlimit="10" stroke-width=".9" d="M59.546 134.8c26.449 0 47.889-8.362 47.889-18.678 0-10.315-21.44-18.678-47.889-18.678-26.448 0-47.889 8.363-47.889 18.678 0 10.316 21.44 18.678 47.89 18.678Z" opacity=".3"/><path stroke="#74C0D8" stroke-miterlimit="10" stroke-width=".9" d="M59.707 128.842c18.178 0 32.914-5.966 32.914-13.325 0-7.359-14.736-13.325-32.914-13.325s-32.914 5.966-32.914 13.325c0 7.359 14.736 13.325 32.914 13.325Z" opacity=".4"/><path stroke="#74C0D8" stroke-miterlimit="10" stroke-width=".9" d="M59.707 123.717c11.361 0 20.572-3.671 20.572-8.2 0-4.528-9.21-8.2-20.572-8.2-11.361 0-20.571 3.672-20.571 8.2 0 4.529 9.21 8.2 20.571 8.2Z" opacity=".5"/><path fill="#069EB3" d="M59.85 94.832h-.822v.009a9.92 9.92 0 0 0-.772.042l-.118.009c-.367.031-.724.071-1.074.123v-.009c-.553.079-1.102.19-1.643.331v.009c-.586.152-1.16.347-1.718.584V84.565a12.218 12.218 0 0 1 1.718-.57v-.015a16.09 16.09 0 0 1 2.717-.453c.286-.023.59-.04.89-.049h.822v-.008c.261 0 .519.008.773.025.249.015.495.032.738.057v11.363a22.915 22.915 0 0 0-1.512-.083ZM62.091 83.638c-.238-.034-.48-.063-.727-.086v11.366c.246.025.49.054.727.088v-.002c.25.034.492.074.727.12v.005c.258.048.513.102.759.162v-.005c.275.065.544.14.804.22.335.102.653.216.957.339 2.05.83 3.36 2.085 3.36 3.511V87.992c0-1.415-1.31-2.681-3.36-3.511a11.696 11.696 0 0 0-.957-.337 9.941 9.941 0 0 0-.804-.222 14.718 14.718 0 0 0-1.486-.283ZM53.695 95.93V84.565a8.993 8.993 0 0 0-1.251.656 6.825 6.825 0 0 0-.627.46c-.15.124-.29.257-.424.399v-.006a3.426 3.426 0 0 0-.312.374v.006a3.096 3.096 0 0 0-.392.727c-.045.12-.08.243-.106.368a2.538 2.538 0 0 0-.04.388v11.365c.003-.13.017-.26.04-.388.026-.126.061-.25.106-.37.044-.126.099-.247.163-.363v-.006c.068-.126.145-.247.23-.362v.006c.095-.132.2-.258.311-.377.134-.14.275-.272.424-.396.2-.166.409-.32.627-.46a8.42 8.42 0 0 1 1.25-.656Z"/><path fill="url(#a)" d="M59.618 77.19c11.952 0 21.676 4.85 21.676 10.801 0 5.951-9.733 10.798-21.676 10.798-11.943 0-21.674-4.85-21.674-10.798s9.725-10.8 21.674-10.8Zm0 15.323c5.007 0 9.08-2.029 9.08-4.522 0-2.493-4.073-4.524-9.08-4.524s-9.078 2.031-9.078 4.524 4.071 4.522 9.078 4.522Z"/><path fill="url(#b)" d="M45.965 96.376v-.003c-4.883-1.983-8.015-5.004-8.015-8.382v9.316c0 3.375 3.122 6.395 8.007 8.375v.003c.73.295 1.494.565 2.29.81a33.694 33.694 0 0 0 3.73.916v.003a41.086 41.086 0 0 0 3.481.49v-9.315a42.225 42.225 0 0 1-1.734-.205v-.003a37.264 37.264 0 0 1-3.553-.67 32.436 32.436 0 0 1-1.924-.531c-.801-.236-1.56-.52-2.282-.804Z"/><path fill="url(#c)" d="M81.291 97.432v-9.315a5.732 5.732 0 0 1-.346 1.811v.009c-.11.294-.24.58-.39.856v.011a8.842 8.842 0 0 1-1.294 1.749v.006c-.315.336-.652.652-1.007.947v9.315c.357-.297.695-.615 1.013-.953v-.006c.265-.28.512-.576.739-.887v-.011c.2-.274.385-.56.55-.856v-.02c.149-.276.28-.562.389-.856v.012a5.83 5.83 0 0 0 .246-.885c.06-.305.094-.615.1-.927Z"/><path fill="url(#d)" d="M78.248 102.821v-9.315c-.475.396-.975.76-1.497 1.092a20.405 20.405 0 0 1-2.983 1.566v.012a28.656 28.656 0 0 1-4.12 1.398 36.96 36.96 0 0 1-3.93.781v.006a45.908 45.908 0 0 1-4.69.408v-.003c-.465.02-.935.02-1.41.02h-.556v-.008a43.568 43.568 0 0 1-1.837-.063h-.003v.008a38.115 38.115 0 0 1-1.76-.134v9.307c.576.057 1.165.102 1.76.134v.009c.607.034 1.222.062 1.84.062v-.003h.556c.475 0 .944-.008 1.411-.022v.005a41.65 41.65 0 0 0 2.124-.119v-.007a37.005 37.005 0 0 0 6.496-1.077 29.144 29.144 0 0 0 4.12-1.398 20.424 20.424 0 0 0 2.982-1.566 14.43 14.43 0 0 0 1.497-1.093Z"/><path fill="#069EB3" d="M77.298 62.97v11.362c0-4.75-7.76-8.618-17.3-8.618-9.538 0-17.293 3.868-17.293 8.618V62.97c0-4.753 7.758-8.621 17.294-8.621 9.536 0 17.3 3.857 17.3 8.62Z"/><path fill="url(#e)" d="M59.999 48.073c16.483 0 29.895 6.684 29.895 14.897 0 8.213-13.412 14.894-29.895 14.894-16.484 0-29.893-6.684-29.893-14.894S43.518 48.073 60 48.073Zm0 23.515c9.538 0 17.3-3.869 17.3-8.618 0-4.75-7.765-8.621-17.3-8.621-9.536 0-17.294 3.857-17.294 8.62 0 4.765 7.758 8.619 17.294 8.619Z"/><path fill="url(#f)" d="M89.894 62.97v9.312c0 8.213-13.412 14.894-29.895 14.894-16.484 0-29.893-6.681-29.893-14.894V62.97c0 8.21 13.412 14.894 29.893 14.894 16.48 0 29.895-6.684 29.895-14.894Z"/><path fill="#069EB3" d="M83.404 38.78v11.364c0-6.433-10.497-11.664-23.402-11.664-12.906 0-23.406 5.231-23.406 11.664V38.78c0-6.43 10.5-11.662 23.406-11.662 12.905 0 23.402 5.232 23.402 11.662Z"/><path fill="url(#g)" d="M60.001 20.835C79.851 20.835 96 28.883 96 38.773c0 9.89-16.16 17.944-35.999 17.944C40.163 56.717 24 48.669 24 38.779c0-9.89 16.148-17.944 36.001-17.944Zm0 29.6c12.905 0 23.403-5.232 23.403-11.662 0-6.43-10.498-11.662-23.403-11.662s-23.405 5.232-23.405 11.662c0 6.43 10.5 11.662 23.405 11.662Z"/><path fill="url(#h)" d="M96 38.779v9.315c0 9.887-16.148 17.935-35.999 17.935C40.151 66.029 24 57.982 24 48.094v-9.315c0 9.89 16.148 17.938 36.001 17.938C79.854 56.717 96 48.669 96 38.779Z"/><path fill="url(#i)" d="m73 3-27 .005 4.146 38.648 1.124 10.663a95.463 95.463 0 0 0 15.985.124L73 3Z"/><path fill="url(#j)" d="m64.845 73.003.406-5.296c-1.715.06-3.463.089-5.246.085-2.337 0-4.641-.055-6.897-.16l.349 5.29c3.775.351 7.597.34 11.388.08Z"/><path fill="url(#k)" d="m58.946 124 1.562-15.498c-.337.006-.677.009-1.03-.014H57.51L58.946 124Z"/><path fill="url(#l)" d="m62.865 88.227-.36 5.075c-2.277.184-4.579.185-6.845-.048l-.329-5.082a125.11 125.11 0 0 0 7.534.055Z"/><defs><linearGradient id="a" x1="59.619" x2="59.619" y1="77.191" y2="98.789" gradientUnits="userSpaceOnUse"><stop stop-color="#50F0F3"/><stop offset="1" stop-color="#0FBCEA"/></linearGradient><linearGradient id="b" x1="41.958" x2="41.958" y1="87.992" y2="107.735" gradientUnits="userSpaceOnUse"><stop stop-color="#1F49DE"/><stop offset="1" stop-color="#0276E1"/></linearGradient><linearGradient id="c" x1="41.958" x2="41.958" y1="87.992" y2="107.735" gradientUnits="userSpaceOnUse"><stop stop-color="#1F49DE"/><stop offset="1" stop-color="#0276E1"/></linearGradient><linearGradient id="d" x1="41.958" x2="41.958" y1="87.992" y2="107.735" gradientUnits="userSpaceOnUse"><stop stop-color="#1F49DE"/><stop offset="1" stop-color="#0276E1"/></linearGradient><linearGradient id="e" x1="60" x2="60" y1="48.073" y2="77.864" gradientUnits="userSpaceOnUse"><stop stop-color="#50F0F3"/><stop offset="1" stop-color="#0FBCEA"/></linearGradient><linearGradient id="f" x1="60" x2="60" y1="62.97" y2="89.226" gradientUnits="userSpaceOnUse"><stop stop-color="#1F49DE"/><stop offset="1" stop-color="#0276E1"/></linearGradient><linearGradient id="g" x1="60" x2="60" y1="20.835" y2="56.717" gradientUnits="userSpaceOnUse"><stop stop-color="#50F0F3"/><stop offset="1" stop-color="#0FBCEA"/></linearGradient><linearGradient id="h" x1="60" x2="60" y1="38.779" y2="68.079" gradientUnits="userSpaceOnUse"><stop stop-color="#1F49DE"/><stop offset="1" stop-color="#0276E1"/></linearGradient><linearGradient id="i" x1="58.946" x2="58.948" y1="6.825" y2="123.504" gradientUnits="userSpaceOnUse"><stop stop-color="#61FFD9" stop-opacity="0"/><stop offset=".538" stop-color="#A7FFEA"/><stop offset=".951" stop-color="#CEFFF3" stop-opacity="0"/></linearGradient><linearGradient id="j" x1="58.946" x2="58.948" y1="6.825" y2="123.504" gradientUnits="userSpaceOnUse"><stop stop-color="#61FFD9" stop-opacity="0"/><stop offset=".538" stop-color="#A7FFEA"/><stop offset=".951" stop-color="#CEFFF3" stop-opacity="0"/></linearGradient><linearGradient id="k" x1="58.946" x2="58.948" y1="6.825" y2="123.504" gradientUnits="userSpaceOnUse"><stop stop-color="#61FFD9" stop-opacity="0"/><stop offset=".538" stop-color="#A7FFEA"/><stop offset=".951" stop-color="#CEFFF3" stop-opacity="0"/></linearGradient><linearGradient id="l" x1="58.946" x2="58.948" y1="6.825" y2="123.504" gradientUnits="userSpaceOnUse"><stop stop-color="#61FFD9" stop-opacity="0"/><stop offset=".538" stop-color="#A7FFEA"/><stop offset=".951" stop-color="#CEFFF3" stop-opacity="0"/></linearGradient></defs></svg>