<svg xmlns="http://www.w3.org/2000/svg" width="167" height="200" fill="none"><g clip-path="url(#a)"><path stroke="#A389FF" stroke-miterlimit="10" stroke-width="1.566" d="M154.412 159.469c0 7.97-13.395 14.932-33.306 18.655-9.779 1.826-21.133 2.874-33.244 2.874-12.11 0-23.467-1.048-33.241-2.874-19.908-3.723-33.304-10.685-33.304-18.655 0-11.893 29.794-21.531 66.545-21.531 36.752 0 66.55 9.638 66.55 21.531Z"/><path stroke="url(#b)" stroke-miterlimit="10" stroke-width="1.566" d="m21.291 158.268-17.009-.323"/><path stroke="url(#c)" stroke-miterlimit="10" stroke-width="1.566" d="M49.11 142.635-10 109.361"/><path stroke="url(#d)" stroke-miterlimit="10" stroke-width="1.566" d="m127.01 142.635 44.626-25.053"/><path stroke="url(#e)" stroke-miterlimit="10" stroke-width="1.566" d="M87.247 143.705V114.45"/><path stroke="url(#f)" stroke-miterlimit="10" stroke-width="1.566" d="M154.833 159.846h21.934"/><path fill="url(#g)" d="M134.178 134.56c0 4.895-9.275 9.17-23.067 11.455-6.773 1.121-14.636 1.764-23.024 1.764-8.388 0-16.249-.643-23.024-1.764-13.788-2.285-23.065-6.556-23.065-11.455 0-7.302 20.635-13.219 46.089-13.219 25.454 0 46.091 5.917 46.091 13.219Z"/><path fill="url(#h)" d="M132.192 134.559c0 4.41-8.877 8.262-22.073 10.33-6.482 1.011-14.005 1.589-22.032 1.589-8.028 0-15.55-.578-22.031-1.589-13.196-2.058-22.073-5.903-22.073-10.33 0-6.577 19.746-11.908 44.104-11.908s44.105 5.331 44.105 11.908Z"/><path fill="#4B17B3" d="M123.29 134.56c0 .273-.048.544-.141.801-1.602-4.566-16.687-8.145-35.062-8.145-18.376 0-33.452 3.579-35.06 8.145a2.35 2.35 0 0 1-.142-.801c0-4.945 15.76-8.953 35.204-8.953 19.444 0 35.201 4.008 35.201 8.953Z"/><path fill="#2F1F43" d="M123.145 135.361c-1.035 2.977-7.8 5.536-17.478 6.957a130.006 130.006 0 0 1-35.17 0c-9.673-1.421-16.442-3.98-17.475-6.957 1.602-4.566 16.687-8.145 35.06-8.145 18.374 0 33.465 3.579 35.063 8.145Z"/><path fill="url(#i)" d="M134.178 134.561v22.907c0 7.3-20.635 13.219-46.091 13.219s-46.09-5.919-46.09-13.219v-22.907c0 4.894 9.276 9.169 23.066 11.454 6.775 1.122 14.638 1.765 23.024 1.765 8.386 0 16.251-.643 23.024-1.765 13.79-2.285 23.067-6.555 23.067-11.454Z"/><path fill="url(#j)" d="M145.489 23.632s-22.245 111.466-22.344 111.729c-1.035 2.977-7.8 5.536-17.478 6.957a130.007 130.007 0 0 1-35.17 0c-9.673-1.421-16.442-3.98-17.475-6.957-.095-.263-22.688-111.73-22.688-111.73H145.49Z" style="mix-blend-mode:hard-light"/><path fill="url(#k)" d="m98.671 53.99-3.522-1.495a16.5 16.5 0 0 0-5.73-1.275c-.162-.015-.326-.015-.489-.015h-.99l-.211.01-.287.015-.226.02-.272.02-.21.026-.276.03-.228.03-.268.037-.232.038-.263.044-.272.053-.232.044-.272.059-.232.053-.278.067-.226.057-.29.08-.211.057-.314.097-.188.057-.35.116-.15.05-.364.131-.135.05c-.165.062-.331.127-.496.195a23.608 23.608 0 0 0-7.302 4.753 27.823 27.823 0 0 0-5.525 7.378 28.919 28.919 0 0 0-2.911 8.868 25.98 25.98 0 0 0 .148 9.006 21.046 21.046 0 0 0 3.183 7.77l3.52 1.495a21.08 21.08 0 0 1-3.183-7.768 25.98 25.98 0 0 1-.148-9.006 28.88 28.88 0 0 1 2.911-8.868 27.922 27.922 0 0 1 5.525-7.378 23.611 23.611 0 0 1 7.3-4.77l.498-.195.135-.048.087-.032c.092-.034.185-.069.278-.1l.147-.05.35-.117.188-.057.08-.025c.077-.024.155-.048.234-.07l.21-.06.291-.08.226-.054.074-.02.202-.05.232-.05.272-.061.232-.045.272-.05.263-.044.232-.038.268-.038.228-.03.276-.032.21-.023.273-.023.223-.017.287-.017.21-.01h.998c.073 0 .147.004.222.007.089.004.178.008.267.008 1.972.083 3.913.52 5.731 1.29Z"/><path fill="url(#l)" d="m106.281 53.45 3.52 1.497a.105.105 0 0 0-.063 0 .172.172 0 0 0-.071.036l-.01-.004-2.174 1.808a.181.181 0 0 0-.053.068.214.214 0 0 0-.019.086l.038 2.812a.147.147 0 0 0 .02.08l.007.002c.012.023.03.04.053.05l-3.522-1.494a.145.145 0 0 1-.053-.051l-.007-.003a.172.172 0 0 1-.019-.078h-.002l-.037-2.815 3.319 1.41-3.317-1.41a.19.19 0 0 1 .019-.084.158.158 0 0 1 .052-.07l2.18-1.812.009.004a.165.165 0 0 1 .067-.03.106.106 0 0 1 .063-.002Z"/><path fill="url(#m)" d="m96.114 96.593-3.522-1.495a81.94 81.94 0 0 1 11.267-34.166l3.52 1.494a81.958 81.958 0 0 0-11.265 34.166Z"/><path fill="url(#n)" fill-rule="evenodd" d="M106.086 60.175a17.226 17.226 0 0 0-5.734-5.352 16.388 16.388 0 0 0-7.416-2.11c-.162-.015-.327-.015-.49-.015h-.988l-.21.01-.287.018-.224.017-.272.023-.21.023-.277.032-.227.029-.268.038-.232.038-.263.044-.272.05-.232.045-.272.061-.232.05a6.72 6.72 0 0 0-.276.07l-.226.055-.29.08-.211.06a9.186 9.186 0 0 0-.315.094l-.187.057-.35.118-.148.049c-.093.032-.186.066-.278.1l-.086.032-.135.049-.498.194a23.61 23.61 0 0 0-7.3 4.77 27.925 27.925 0 0 0-5.525 7.378 28.88 28.88 0 0 0-2.911 8.868 25.982 25.982 0 0 0 .148 9.006 21.079 21.079 0 0 0 3.18 7.757c7.227-1.473 14.223-5.253 20.16-10.868 5.936-5.616 10.571-12.86 13.354-20.87Zm3.72-5.215c.023.01.041.027.053.049.013.024.02.05.021.078l.038 2.814a.21.21 0 0 1-.07.156l-2.184 1.81a.152.152 0 0 1-.069.037.118.118 0 0 1-.072-.01.114.114 0 0 1-.053-.051.16.16 0 0 1-.021-.08l-.038-2.813a.233.233 0 0 1 .019-.086.204.204 0 0 1 .053-.067l2.18-1.813a.178.178 0 0 1 .071-.036c.025-.005.05 0 .072.012Zm-3.792 31.444c-2.426 4.359-5.888 7.922-9.908 10.19a81.946 81.946 0 0 1 11.266-34.167 23.094 23.094 0 0 1 2.283 9.864 28.472 28.472 0 0 1-3.641 14.113Z" clip-rule="evenodd"/><circle cx="87.865" cy="73.739" r="38.363" fill="url(#o)"/><circle cx="87.865" cy="73.739" r="33.88" fill="url(#p)" style="mix-blend-mode:screen" transform="rotate(15 87.865 73.739)"/><path stroke="url(#q)" stroke-width="1.253" d="M135.779 119.147c0 1.506-1.13 3.093-3.558 4.654-2.4 1.544-5.914 2.957-10.312 4.153-8.788 2.391-20.963 3.877-34.436 3.877-13.473 0-25.649-1.486-34.436-3.877-4.398-1.196-7.913-2.609-10.312-4.153-2.429-1.561-3.558-3.148-3.558-4.654 0-1.505 1.13-3.092 3.558-4.653 2.4-1.544 5.913-2.957 10.312-4.153 8.787-2.391 20.963-3.877 34.436-3.877 13.473 0 25.648 1.486 34.436 3.877 4.398 1.196 7.912 2.609 10.312 4.153 2.428 1.561 3.558 3.148 3.558 4.653Z" style="mix-blend-mode:hard-light"/><g opacity=".6"><path fill="url(#r)" d="M159.194 122.072h-12.527v5.275c0 .732 1.261 1.372 3.135 1.713.921.168 1.989.265 3.129.265s2.209-.097 3.129-.265c1.873-.341 3.134-.981 3.134-1.713v-5.275Z"/><path fill="url(#s)" d="M146.667 122.073c0 .732 1.261 1.371 3.135 1.713.92.168 1.989.265 3.129.265s2.208-.097 3.128-.265c1.874-.342 3.135-.981 3.135-1.713 0-1.093-2.804-1.978-6.263-1.978s-6.264.885-6.264 1.978Z"/><path fill="url(#t)" d="M159.194 16.585h-11.537l2.967 105.487c0 .244.464.458 1.154.572.34.056.733.088 1.153.088.42 0 .814-.032 1.153-.088.69-.114 1.155-.328 1.155-.572l3.955-105.487Z" opacity=".6"/><path stroke="url(#u)" stroke-width=".626" d="M158.881 115.48c0 .128-.083.307-.366.519-.278.207-.7.407-1.25.581-1.095.346-2.628.565-4.334.565-1.707 0-3.239-.219-4.335-.565-.549-.174-.971-.374-1.249-.581-.283-.212-.366-.391-.366-.519 0-.129.083-.307.366-.519.278-.208.7-.408 1.249-.581 1.096-.346 2.628-.565 4.335-.565 1.706 0 3.239.219 4.334.565.55.173.972.373 1.25.581.283.212.366.39.366.519Z" style="mix-blend-mode:hard-light"/></g><g opacity=".8"><g filter="url(#v)" style="mix-blend-mode:color-dodge"><circle cx="7.438" cy="7.438" r="7.438" fill="url(#w)" fill-opacity=".85" transform="matrix(-1 0 0 1 19.724 71.389)"/></g><path fill="url(#x)" d="m12.264 82.61-1.935-3.87 1.935-3.87 1.935 3.87-1.935 3.87Z"/><circle cx="12.286" cy="78.826" r="9.786" fill="url(#y)"/></g></g><defs><linearGradient id="b" x1="21.291" x2="4.286" y1="158.268" y2="158.424" gradientUnits="userSpaceOnUse"><stop stop-color="#A389FF"/><stop offset=".341" stop-color="#A389FF" stop-opacity=".462"/><stop offset="1" stop-color="#A389FF" stop-opacity="0"/></linearGradient><linearGradient id="c" x1="47.545" x2="-6.476" y1="141.852" y2="111.318" gradientUnits="userSpaceOnUse"><stop stop-color="#A389FF"/><stop offset=".329" stop-color="#A389FF" stop-opacity=".33"/><stop offset=".774" stop-color="#A389FF" stop-opacity=".06"/><stop offset=".987" stop-color="#A389FF" stop-opacity="0"/></linearGradient><linearGradient id="d" x1="128.576" x2="169.288" y1="141.852" y2="119.147" gradientUnits="userSpaceOnUse"><stop stop-color="#A389FF"/><stop offset=".307" stop-color="#A389FF" stop-opacity=".462"/><stop offset=".576" stop-color="#A389FF" stop-opacity="0"/></linearGradient><linearGradient id="e" x1="87.173" x2="87.173" y1="141.956" y2="116.407" gradientUnits="userSpaceOnUse"><stop stop-color="#A389FF"/><stop offset=".307" stop-color="#A389FF" stop-opacity=".462"/><stop offset=".899" stop-color="#A389FF" stop-opacity="0"/></linearGradient><linearGradient id="f" x1="154.833" x2="176.767" y1="159.846" y2="159.968" gradientUnits="userSpaceOnUse"><stop stop-color="#A389FF"/><stop offset=".537" stop-color="#A389FF" stop-opacity=".462"/><stop offset="1" stop-color="#A389FF" stop-opacity="0"/></linearGradient><linearGradient id="g" x1="88.088" x2="88.088" y1="121.341" y2="147.779" gradientUnits="userSpaceOnUse"><stop stop-color="#423EFF"/><stop offset="1" stop-color="#94B7FF"/></linearGradient><linearGradient id="h" x1="88.088" x2="88.088" y1="122.651" y2="146.478" gradientUnits="userSpaceOnUse"><stop stop-color="#7435FF"/><stop offset="1" stop-color="#A791FF"/></linearGradient><linearGradient id="i" x1="41.673" x2="134.057" y1="146.549" y2="147.332" gradientUnits="userSpaceOnUse"><stop stop-color="#4557F1"/><stop offset="1" stop-color="#312ED8"/></linearGradient><linearGradient id="j" x1="87.865" x2="87.865" y1="143.418" y2="23.632" gradientUnits="userSpaceOnUse"><stop offset=".023" stop-color="#D5EDFF"/><stop offset=".147" stop-color="#B5D9FF" stop-opacity=".87"/><stop offset=".48" stop-color="#A7C0FF" stop-opacity=".25"/><stop offset=".834" stop-color="#8886FF" stop-opacity=".06"/><stop offset="1" stop-color="#0B0C12" stop-opacity="0"/></linearGradient><linearGradient id="k" x1="69.466" x2="102.74" y1="59.646" y2="88.614" gradientUnits="userSpaceOnUse"><stop stop-color="#F6DEFF"/><stop offset="1" stop-color="#C172FF"/></linearGradient><linearGradient id="l" x1="69.466" x2="102.74" y1="59.646" y2="88.614" gradientUnits="userSpaceOnUse"><stop stop-color="#F6DEFF"/><stop offset="1" stop-color="#C172FF"/></linearGradient><linearGradient id="m" x1="69.466" x2="102.74" y1="59.646" y2="88.614" gradientUnits="userSpaceOnUse"><stop stop-color="#F6DEFF"/><stop offset="1" stop-color="#C172FF"/></linearGradient><linearGradient id="n" x1="69.076" x2="106.656" y1="59.647" y2="89.789" gradientUnits="userSpaceOnUse"><stop stop-color="#F573FF"/><stop offset="1" stop-color="#7B3AFF"/></linearGradient><linearGradient id="o" x1="61.89" x2="107.446" y1="41.77" y2="106.907" gradientUnits="userSpaceOnUse"><stop stop-color="#9887FF" stop-opacity=".44"/><stop offset=".241" stop-color="#48229E" stop-opacity="0"/><stop offset=".457" stop-color="#5527B6" stop-opacity="0"/><stop offset="1" stop-color="#E4CEFF" stop-opacity=".13"/></linearGradient><linearGradient id="p" x1="64.925" x2="105.158" y1="45.505" y2="103.031" gradientUnits="userSpaceOnUse"><stop stop-color="#D4A9FF" stop-opacity=".46"/><stop offset=".359" stop-color="#5527B6" stop-opacity="0"/><stop offset=".434" stop-color="#342ACE" stop-opacity="0"/><stop offset="1" stop-color="#C9DEFF" stop-opacity=".62"/></linearGradient><linearGradient id="q" x1="85.026" x2="85.026" y1="132.457" y2="108.5" gradientUnits="userSpaceOnUse"><stop stop-color="#D1FAFF"/><stop offset="1" stop-color="#74BCFF" stop-opacity=".04"/></linearGradient><linearGradient id="r" x1="146.623" x2="159.178" y1="124.479" y2="124.551" gradientUnits="userSpaceOnUse"><stop stop-color="#4557F1"/><stop offset="1" stop-color="#312ED8"/></linearGradient><linearGradient id="s" x1="152.931" x2="152.931" y1="120.095" y2="124.051" gradientUnits="userSpaceOnUse"><stop stop-color="#7435FF"/><stop offset="1" stop-color="#A791FF"/></linearGradient><linearGradient id="t" x1="153.261" x2="153.714" y1="122.732" y2="47.901" gradientUnits="userSpaceOnUse"><stop stop-color="#F5F3FF"/><stop offset=".099" stop-color="#C2B8FF"/><stop offset=".323" stop-color="#AD91FF" stop-opacity=".44"/><stop offset=".751" stop-color="#8F5AFF" stop-opacity=".09"/><stop offset="1" stop-color="#6C14DC" stop-opacity="0"/></linearGradient><linearGradient id="u" x1="152.618" x2="152.618" y1="117.458" y2="113.898" gradientUnits="userSpaceOnUse"><stop stop-color="#BAE0FF"/><stop offset="1" stop-color="#4298E8" stop-opacity="0"/></linearGradient><linearGradient id="x" x1="12.264" x2="12.264" y1="82.61" y2="74.87" gradientUnits="userSpaceOnUse"><stop stop-color="#79DFFF"/><stop offset="1" stop-color="#FEB5FF"/></linearGradient><linearGradient id="y" x1="5.66" x2="17.281" y1="70.671" y2="87.288" gradientUnits="userSpaceOnUse"><stop stop-color="#9887FF" stop-opacity=".44"/><stop offset=".241" stop-color="#48229E" stop-opacity="0"/><stop offset=".457" stop-color="#5527B6" stop-opacity="0"/><stop offset="1" stop-color="#E4CEFF" stop-opacity=".13"/></linearGradient><radialGradient id="w" cx="0" cy="0" r="1" gradientTransform="rotate(-142.696 4.663 2.154) scale(9.81803)" gradientUnits="userSpaceOnUse"><stop offset=".017" stop-color="#CB5CFF" stop-opacity=".9"/><stop offset=".803" stop-color="#2926A9" stop-opacity="0"/></radialGradient><clipPath id="a"><path fill="#fff" d="M0 0h166.667v200H0z"/></clipPath><filter id="v" width="33.665" height="33.665" x="-4.546" y="61.994" color-interpolation-filters="sRGB" filterUnits="userSpaceOnUse"><feFlood flood-opacity="0" result="BackgroundImageFix"/><feBlend in="SourceGraphic" in2="BackgroundImageFix" result="shape"/><feGaussianBlur result="effect1_foregroundBlur_514_1468" stdDeviation="4.697"/></filter></defs></svg>