<svg xmlns="http://www.w3.org/2000/svg" width="228" height="185" fill="none"><g style="mix-blend-mode:hard-light"><path stroke="url(#a)" stroke-opacity=".75" stroke-width="2" d="M214.025 71.005c3.306 12.338-4.437 26.71-20.377 40.033-15.869 13.264-39.571 25.217-67.351 32.66-27.78 7.444-54.284 8.944-74.659 5.392-20.465-3.569-34.357-12.143-37.663-24.482-3.306-12.338 4.437-26.71 20.377-40.033 15.869-13.264 39.571-25.216 67.351-32.66 27.78-7.444 54.284-8.944 74.659-5.391 20.465 3.568 34.357 12.143 37.663 24.481Z" style="mix-blend-mode:color-dodge"/></g><circle cx="114.5" cy="92.307" r="56.5" fill="url(#b)" fill-opacity=".85"/><path fill="url(#c)" fill-rule="evenodd" d="M131.306 96.075c-2.505 2.674-5.909 5.663-10.213 8.965v8.272H146v-8.867h-11.032c3.115-2.014 5.7-4.474 7.756-7.38 2.088-2.939 3.131-6.076 3.131-9.41 0-3.17-.963-5.763-2.89-7.777-1.895-2.048-4.898-3.071-9.009-3.071-2.313 0-4.432.462-6.359 1.386-1.927.925-3.501 2.378-4.722 4.36-1.188 1.98-1.83 4.507-1.927 7.578h10.358c-.096-1.387.032-2.41.386-3.071.385-.694.899-1.04 1.541-1.04.546 0 .98.214 1.301.644.353.429.53 1.04.53 1.832 0 2.345-1.253 4.87-3.758 7.579Zm-23.013 17.732 11.466-35.069h-11.37l-6.986 24.122-7.033-24.122H83l11.466 35.069h13.827Z" clip-rule="evenodd"/><circle cx="114.751" cy="92.369" r="75.442" fill="url(#d)" fill-opacity=".67"/><circle cx="114.598" cy="92.078" r="75.181" fill="url(#e)" opacity=".56" style="mix-blend-mode:color-dodge" transform="rotate(75 114.598 92.078)"/><g filter="url(#f)" style="mix-blend-mode:color-dodge"><path fill="url(#g)" fill-opacity=".55" d="M171 92.993c0 31.589-25.744 43.814-57.503 43.814S56 124.582 56 92.993s25.744-57.186 57.497-57.186C145.251 35.807 171 61.41 171 92.993Z"/></g><circle cx="214.284" cy="75.251" r="6.34" fill="url(#h)"/><g filter="url(#i)" style="mix-blend-mode:color-dodge"><circle cx="10.694" cy="10.694" r="10.694" fill="url(#j)" fill-opacity=".45" transform="matrix(-.66813 -.74404 -.74404 .66813 38.454 67.013)"/></g><path fill="url(#k)" d="m19.282 69.813 2.281-5.789 6-1.648-2.282 5.789-6 1.647Z"/><g filter="url(#l)" style="mix-blend-mode:color-dodge"><circle cx="13.814" cy="13.814" r="13.814" fill="url(#m)" fill-opacity=".65" transform="scale(-1 1) rotate(-51.092 44.065 297.479)"/></g><path fill="url(#n)" d="m190.177 147.24 3.336-7.311 7.851-1.718-3.337 7.311-7.85 1.718Z"/><defs><radialGradient id="a" cx="0" cy="0" r="1" gradientTransform="rotate(81.636 27.768 89.748) scale(96.4701 206.386)" gradientUnits="userSpaceOnUse"><stop stop-color="#5815C6" stop-opacity="0"/><stop offset="1" stop-color="#D39CFF"/></radialGradient><radialGradient id="b" cx="0" cy="0" r="1" gradientTransform="rotate(43.671 -15.626 90.414) scale(149.55 123.882)" gradientUnits="userSpaceOnUse"><stop stop-color="#E6CCFF"/><stop offset=".232" stop-color="#B28EFF" stop-opacity=".799"/><stop offset=".505" stop-color="#7448F2" stop-opacity=".56"/><stop offset="1" stop-color="#2B026D" stop-opacity="0"/></radialGradient><radialGradient id="c" cx="0" cy="0" r="1" gradientTransform="rotate(58.516 -15.5 119.496) scale(77.5482 129.954)" gradientUnits="userSpaceOnUse"><stop stop-color="#A8EAFF"/><stop offset="1" stop-color="#5A7FFF" stop-opacity="0"/></radialGradient><radialGradient id="d" cx="0" cy="0" r="1" gradientTransform="matrix(144.43695 137.8886 -114.2224 119.64684 39.455 16.927)" gradientUnits="userSpaceOnUse"><stop offset=".011" stop-color="#69B7FF"/><stop offset=".579" stop-color="#7448F2" stop-opacity=".17"/><stop offset="1" stop-color="#252CDC" stop-opacity="0"/></radialGradient><radialGradient id="e" cx="0" cy="0" r="1" gradientTransform="rotate(158.424 114.33 36.83) scale(219.75 128.562)" gradientUnits="userSpaceOnUse"><stop stop-color="#9E8EFF" stop-opacity=".76"/><stop offset=".922" stop-color="#010A21" stop-opacity="0"/></radialGradient><radialGradient id="g" cx="0" cy="0" r="1" gradientTransform="matrix(61.28502 115.6267 -103.0262 54.60644 72.263 35.807)" gradientUnits="userSpaceOnUse"><stop stop-color="#5364FF" stop-opacity=".9"/><stop offset=".761" stop-color="#1551E9" stop-opacity=".23"/><stop offset="1" stop-color="#0C007E" stop-opacity="0"/></radialGradient><radialGradient id="h" cx="0" cy="0" r="1" gradientTransform="rotate(41.878 13.194 304.265) scale(18.994)" gradientUnits="userSpaceOnUse"><stop stop-color="#C29CFF"/><stop offset="1" stop-color="#6637B1"/></radialGradient><radialGradient id="j" cx="0" cy="0" r="1" gradientTransform="rotate(-142.696 6.704 3.098) scale(14.1172)" gradientUnits="userSpaceOnUse"><stop offset=".017" stop-color="#E85CFF" stop-opacity=".9"/><stop offset="1" stop-color="#2926A9" stop-opacity="0"/></radialGradient><radialGradient id="m" cx="0" cy="0" r="1" gradientTransform="rotate(-142.696 8.66 4.001) scale(18.2348)" gradientUnits="userSpaceOnUse"><stop offset=".017" stop-color="#E85CFF" stop-opacity=".9"/><stop offset="1" stop-color="#2926A9" stop-opacity="0"/></radialGradient><filter id="f" width="131.102" height="117.102" x="47.949" y="27.756" color-interpolation-filters="sRGB" filterUnits="userSpaceOnUse"><feFlood flood-opacity="0" result="BackgroundImageFix"/><feBlend in="SourceGraphic" in2="BackgroundImageFix" result="shape"/><feGaussianBlur result="effect1_foregroundBlur_622_4664" stdDeviation="4.026"/></filter><filter id="i" width="41.676" height="41.677" x="2.513" y="45.362" color-interpolation-filters="sRGB" filterUnits="userSpaceOnUse"><feFlood flood-opacity="0" result="BackgroundImageFix"/><feBlend in="SourceGraphic" in2="BackgroundImageFix" result="shape"/><feGaussianBlur result="effect1_foregroundBlur_622_4664" stdDeviation="5.072"/></filter><filter id="l" width="52.987" height="52.988" x="169.178" y="116.365" color-interpolation-filters="sRGB" filterUnits="userSpaceOnUse"><feFlood flood-opacity="0" result="BackgroundImageFix"/><feBlend in="SourceGraphic" in2="BackgroundImageFix" result="shape"/><feGaussianBlur result="effect1_foregroundBlur_622_4664" stdDeviation="6.34"/></filter><linearGradient id="k" x1="27.897" x2="19.656" y1="62.571" y2="70.179" gradientUnits="userSpaceOnUse"><stop stop-color="#79DFFF"/><stop offset="1" stop-color="#FEB5FF"/></linearGradient><linearGradient id="n" x1="190.177" x2="201.364" y1="147.24" y2="138.211" gradientUnits="userSpaceOnUse"><stop stop-color="#79DFFF"/><stop offset="1" stop-color="#FEB5FF"/></linearGradient></defs></svg>