<svg xmlns="http://www.w3.org/2000/svg" width="200" height="200" fill="none"><g filter="url(#a)" style="mix-blend-mode:color-dodge"><circle cx="8.228" cy="8.228" r="8.228" fill="url(#b)" fill-opacity=".85" transform="matrix(-1 0 0 1 49.185 51.565)"/></g><circle cx="41.187" cy="59.219" r="12.487" fill="url(#c)"/><g filter="url(#d)"><path fill="url(#e)" d="m40.932 63.978-2.14-4.281 2.14-4.282 2.141 4.282-2.14 4.281Z"/></g><g filter="url(#f)" style="mix-blend-mode:color-dodge"><circle cx="5.486" cy="5.486" r="5.486" fill="url(#g)" fill-opacity=".85" transform="matrix(-1 0 0 1 179.252 121.177)"/></g><circle cx="173.92" cy="126.279" r="8.325" fill="url(#h)"/><g filter="url(#i)"><path fill="url(#j)" d="m173.75 129.452-1.427-2.854 1.427-2.855 1.427 2.855-1.427 2.854Z"/></g><ellipse cx="99.46" cy="146.63" fill="url(#k)" rx="53.186" ry="14.8"/><ellipse cx="99.46" cy="130.905" fill="url(#l)" rx="53.186" ry="14.8"/><path fill="url(#m)" d="M99.46 145.705c29.374 0 53.186-6.626 53.186-14.8v15.725c0 8.173-23.812 14.799-53.186 14.799-29.373 0-53.186-6.626-53.186-14.799v-15.725c0 8.174 23.813 14.8 53.186 14.8Z"/><path stroke="url(#n)" stroke-width="3.534" d="M74.023 128.13v6.474"/><path fill="url(#o)" d="m85.723 85.581-.078 42.43-13.853 1.968.077-42.435 13.854-1.963Z"/><path fill="url(#p)" d="m71.792 129.98-8.868-4.869.078-42.435 8.867 4.869-.077 42.435Z"/><path fill="url(#q)" d="M71.87 87.545 63 82.676l13.854-1.968 8.868 4.874-13.854 1.963Z"/><path stroke="url(#r)" stroke-width="3.534" d="M73.561 84.193V70.318"/><path stroke="url(#s)" stroke-width="3.534" d="M98.998 114.255v15.724"/><path fill="url(#t)" d="m110.857 62.7-.097 51.441-13.859 1.963.102-51.442 13.854-1.963Z"/><path fill="url(#u)" d="m96.901 116.104-8.867-4.869.097-51.441 8.873 4.869-.103 51.441Z"/><path fill="url(#v)" d="m97.004 64.663-8.873-4.869 13.859-1.963 8.867 4.869-13.853 1.963Z"/><path stroke="url(#w)" stroke-width="3.534" d="M98.998 61.53V47.657"/><path stroke="url(#x)" stroke-width="3.534" d="M123.972 96.68v19.424"/><path fill="url(#y)" d="m135.996 47.9-.126 48.661-13.854 1.968.127-48.666 13.853-1.964Z"/><path fill="url(#z)" d="m122.016 98.53-8.868-4.87.122-48.666 8.873 4.869-.127 48.666Z"/><path fill="url(#A)" d="m122.143 49.863-8.873-4.868 13.854-1.964 8.872 4.869-13.853 1.963Z"/><path stroke="url(#B)" stroke-width="3.534" d="M123.972 46.731V32.856"/><path fill="url(#C)" fill-rule="evenodd" d="M25.054 111.115c-1.06-8.047 13.707-17.114 36.353-23.757v1.424c-19.322 5.652-31.764 12.896-30.935 19.183.837 6.357 15.027 10.143 35.511 10.527l.974-3.775 9.712 6.938-13.412 7.4 1.153-4.468c-22.576-.764-38.325-5.644-39.356-13.472Z" clip-rule="evenodd"/><path fill="url(#D)" fill-rule="evenodd" d="m141.88 79.106 4.625-1.85-.651 1.626c16.223 1.819 26.917 6.25 27.761 12.653 1.45 11.003-26.694 23.915-64.109 29.924v-6.352c33.85-5.508 59.232-16.315 58.06-25.21-.641-4.867-9.109-8.227-22.235-9.707l-.676 1.69-2.775-2.774Z" clip-rule="evenodd"/><defs><linearGradient id="c" x1="32.733" x2="47.561" y1="48.813" y2="70.015" gradientUnits="userSpaceOnUse"><stop stop-color="#9887FF" stop-opacity=".44"/><stop offset=".241" stop-color="#48229E" stop-opacity="0"/><stop offset=".457" stop-color="#5527B6" stop-opacity="0"/><stop offset="1" stop-color="#E4CEFF" stop-opacity=".13"/></linearGradient><linearGradient id="e" x1="40.932" x2="40.932" y1="63.978" y2="55.415" gradientUnits="userSpaceOnUse"><stop stop-color="#79DFFF"/><stop offset="1" stop-color="#FEB5FF"/></linearGradient><linearGradient id="h" x1="168.284" x2="178.17" y1="119.342" y2="133.476" gradientUnits="userSpaceOnUse"><stop stop-color="#9887FF" stop-opacity=".44"/><stop offset=".241" stop-color="#48229E" stop-opacity="0"/><stop offset=".457" stop-color="#5527B6" stop-opacity="0"/><stop offset="1" stop-color="#E4CEFF" stop-opacity=".13"/></linearGradient><linearGradient id="j" x1="173.75" x2="173.75" y1="129.452" y2="123.743" gradientUnits="userSpaceOnUse"><stop stop-color="#79DFFF"/><stop offset="1" stop-color="#FEB5FF"/></linearGradient><linearGradient id="k" x1="76.336" x2="99.923" y1="161.429" y2="131.83" gradientUnits="userSpaceOnUse"><stop stop-color="#C0A5FB"/><stop offset="1" stop-color="#805BCD"/></linearGradient><linearGradient id="l" x1="89.286" x2="94.835" y1="145.705" y2="103.618" gradientUnits="userSpaceOnUse"><stop stop-color="#9CBEFF"/><stop offset="1" stop-color="#3D1FB4"/></linearGradient><linearGradient id="m" x1="76.799" x2="110.098" y1="157.73" y2="105.468" gradientUnits="userSpaceOnUse"><stop stop-color="#7886FF"/><stop offset="1" stop-color="#5D3ED9" stop-opacity=".64"/></linearGradient><linearGradient id="n" x1="74.023" x2="74.023" y1="128.346" y2="134.82" gradientUnits="userSpaceOnUse"><stop stop-color="#FDF2FF"/><stop offset="1" stop-color="#BFAAFF" stop-opacity="0"/></linearGradient><linearGradient id="o" x1="74.023" x2="78.757" y1="87.43" y2="129.979" gradientUnits="userSpaceOnUse"><stop stop-color="#E08FFD"/><stop offset="1" stop-color="#8F73FF"/></linearGradient><linearGradient id="p" x1="67.397" x2="67.397" y1="82.676" y2="129.98" gradientUnits="userSpaceOnUse"><stop stop-color="#9671EC"/><stop offset="1" stop-color="#5B46DA"/></linearGradient><linearGradient id="q" x1="74.023" x2="76.336" y1="88.356" y2="80.031" gradientUnits="userSpaceOnUse"><stop stop-color="#FFDFFC"/><stop offset="1" stop-color="#BD74F8"/></linearGradient><linearGradient id="r" x1="73.561" x2="73.561" y1="83.731" y2="69.856" gradientUnits="userSpaceOnUse"><stop stop-color="#FDF2FF"/><stop offset="1" stop-color="#BFAAFF" stop-opacity="0"/></linearGradient><linearGradient id="s" x1="98.998" x2="98.998" y1="114.779" y2="130.504" gradientUnits="userSpaceOnUse"><stop stop-color="#FDF2FF"/><stop offset="1" stop-color="#BFAAFF" stop-opacity="0"/></linearGradient><linearGradient id="t" x1="99.137" x2="106.65" y1="65.04" y2="118.492" gradientUnits="userSpaceOnUse"><stop stop-color="#E08FFD"/><stop offset="1" stop-color="#8F73FF"/></linearGradient><linearGradient id="u" x1="92.519" x2="92.519" y1="59.794" y2="118.882" gradientUnits="userSpaceOnUse"><stop stop-color="#9671EC"/><stop offset="1" stop-color="#5B46DA"/></linearGradient><linearGradient id="v" x1="99.155" x2="101.464" y1="65.474" y2="57.154" gradientUnits="userSpaceOnUse"><stop stop-color="#FFDFFC"/><stop offset="1" stop-color="#BD74F8"/></linearGradient><linearGradient id="w" x1="98.998" x2="98.998" y1="61.068" y2="47.194" gradientUnits="userSpaceOnUse"><stop stop-color="#FDF2FF"/><stop offset="1" stop-color="#BFAAFF" stop-opacity="0"/></linearGradient><linearGradient id="x" x1="123.972" x2="123.972" y1="97.328" y2="116.752" gradientUnits="userSpaceOnUse"><stop stop-color="#FDF2FF"/><stop offset="1" stop-color="#BFAAFF" stop-opacity="0"/></linearGradient><linearGradient id="y" x1="124.256" x2="130.369" y1="50.008" y2="98.357" gradientUnits="userSpaceOnUse"><stop stop-color="#E08FFD"/><stop offset="1" stop-color="#8F73FF"/></linearGradient><linearGradient id="z" x1="117.646" x2="117.646" y1="44.994" y2="98.529" gradientUnits="userSpaceOnUse"><stop stop-color="#9671EC"/><stop offset="1" stop-color="#5B46DA"/></linearGradient><linearGradient id="A" x1="124.294" x2="126.603" y1="50.674" y2="42.354" gradientUnits="userSpaceOnUse"><stop stop-color="#FFDFFC"/><stop offset="1" stop-color="#BD74F8"/></linearGradient><linearGradient id="B" x1="123.972" x2="123.972" y1="46.269" y2="32.394" gradientUnits="userSpaceOnUse"><stop stop-color="#FDF2FF"/><stop offset="1" stop-color="#BFAAFF" stop-opacity="0"/></linearGradient><linearGradient id="C" x1="68.807" x2="62.332" y1="121.192" y2="87.431" gradientUnits="userSpaceOnUse"><stop stop-color="#A3F4EF"/><stop offset="1" stop-color="#3D96FF" stop-opacity="0"/></linearGradient><linearGradient id="D" x1="153.535" x2="109.806" y1="80.119" y2="118.547" gradientUnits="userSpaceOnUse"><stop stop-color="#FA8AEF" stop-opacity=".81"/><stop offset=".19" stop-color="#E56FF7" stop-opacity=".75"/><stop offset="1" stop-color="#D356FF" stop-opacity="0"/></linearGradient><filter id="a" width="44.886" height="44.887" x="18.514" y="37.35" color-interpolation-filters="sRGB" filterUnits="userSpaceOnUse"><feFlood flood-opacity="0" result="BackgroundImageFix"/><feBlend in="SourceGraphic" in2="BackgroundImageFix" result="shape"/><feGaussianBlur result="effect1_foregroundBlur_622_4586" stdDeviation="7.107"/></filter><filter id="d" width="18.416" height="22.698" x="31.724" y="48.348" color-interpolation-filters="sRGB" filterUnits="userSpaceOnUse"><feFlood flood-opacity="0" result="BackgroundImageFix"/><feColorMatrix in="SourceAlpha" result="hardAlpha" values="0 0 0 0 0 0 0 0 0 0 0 0 0 0 0 0 0 0 127 0"/><feOffset/><feGaussianBlur stdDeviation="3.534"/><feComposite in2="hardAlpha" operator="out"/><feColorMatrix values="0 0 0 0 0.6425 0 0 0 0 0.1875 0 0 0 0 1 0 0 0 1 0"/><feBlend in2="BackgroundImageFix" result="effect1_dropShadow_622_4586"/><feBlend in="SourceGraphic" in2="effect1_dropShadow_622_4586" result="shape"/></filter><filter id="f" width="39.401" height="39.4" x="154.066" y="106.962" color-interpolation-filters="sRGB" filterUnits="userSpaceOnUse"><feFlood flood-opacity="0" result="BackgroundImageFix"/><feBlend in="SourceGraphic" in2="BackgroundImageFix" result="shape"/><feGaussianBlur result="effect1_foregroundBlur_622_4586" stdDeviation="7.107"/></filter><filter id="i" width="16.989" height="19.843" x="165.256" y="116.676" color-interpolation-filters="sRGB" filterUnits="userSpaceOnUse"><feFlood flood-opacity="0" result="BackgroundImageFix"/><feColorMatrix in="SourceAlpha" result="hardAlpha" values="0 0 0 0 0 0 0 0 0 0 0 0 0 0 0 0 0 0 127 0"/><feOffset/><feGaussianBlur stdDeviation="3.534"/><feComposite in2="hardAlpha" operator="out"/><feColorMatrix values="0 0 0 0 0.6425 0 0 0 0 0.1875 0 0 0 0 1 0 0 0 1 0"/><feBlend in2="BackgroundImageFix" result="effect1_dropShadow_622_4586"/><feBlend in="SourceGraphic" in2="effect1_dropShadow_622_4586" result="shape"/></filter><radialGradient id="b" cx="0" cy="0" r="1" gradientTransform="rotate(-142.696 5.158 2.383) scale(10.8617)" gradientUnits="userSpaceOnUse"><stop offset=".017" stop-color="#CB5CFF" stop-opacity=".9"/><stop offset=".803" stop-color="#2926A9" stop-opacity="0"/></radialGradient><radialGradient id="g" cx="0" cy="0" r="1" gradientTransform="rotate(-142.696 3.439 1.589) scale(7.24113)" gradientUnits="userSpaceOnUse"><stop offset=".017" stop-color="#CB5CFF" stop-opacity=".9"/><stop offset=".803" stop-color="#2926A9" stop-opacity="0"/></radialGradient></defs></svg>