<svg xmlns="http://www.w3.org/2000/svg" width="200" height="200" fill="none"><path stroke="url(#a)" stroke-miterlimit="10" stroke-width="1.566" d="M87 100h101" style="mix-blend-mode:hard-light"/><path stroke="url(#b)" stroke-miterlimit="10" stroke-width="1.566" d="M50 177h132" style="mix-blend-mode:hard-light"/><path stroke="url(#c)" stroke-miterlimit="10" stroke-width="1.566" d="M31 28h74" style="mix-blend-mode:hard-light"/><path fill="url(#d)" d="M0 0h106v14H0z" transform="matrix(-1 0 0 1 198 111)"/><path fill="#94B2FF" fill-rule="evenodd" d="m150.304 102.105 21.912-19.052L150.304 64v12H105v14h45.304v12.105Z" clip-rule="evenodd"/><path fill="url(#e)" d="M104.392 143.21c-.222-.013-.444-.019-.661-.044a16.657 16.657 0 0 1-.998-.134l-.279-.038a14.457 14.457 0 0 1-1.208-.279c-.095-.025-.191-.057-.286-.088a11.905 11.905 0 0 1-1.08-.368 9.217 9.217 0 0 1-.357-.158 11.33 11.33 0 0 1-.387-.184c-.083-.045-.166-.083-.248-.127-.14-.076-.28-.152-.42-.235-.076-.044-.146-.088-.222-.133a9.839 9.839 0 0 1-.54-.361c-.032-.025-.07-.044-.102-.07a12.88 12.88 0 0 1-.674-.526l-.153-.133c-.26-.228-.514-.463-.763-.717-.158-.158-.31-.329-.463-.5-.102-.121-.198-.254-.293-.381a17.758 17.758 0 0 1-.706-1.001c-.038-.057-.07-.114-.108-.171a21.47 21.47 0 0 1-.667-1.129c-.032-.051-.057-.108-.089-.165a27.167 27.167 0 0 1-.642-1.28.99.99 0 0 1-.05-.121 31.583 31.583 0 0 1-.63-1.471 28.78 28.78 0 0 1-.4-1.198c-.032-.107-.07-.215-.102-.323a37.283 37.283 0 0 1-.33-1.16c-.014-.044-.026-.095-.039-.14a35.217 35.217 0 0 1-.324-1.356l-.076-.362a32.137 32.137 0 0 1-.248-1.236c-.02-.089-.032-.177-.051-.266-.051-.266-.096-.539-.14-.811-.026-.14-.044-.273-.07-.406a61.023 61.023 0 0 1-.184-1.268 51.407 51.407 0 0 1-.166-1.528c-.012-.152-.031-.311-.044-.469a141.255 141.255 0 0 1-.14-1.674c-.076-1.103-.14-2.257-.184-3.461 0-.178-.013-.355-.02-.533-.012-.45-.025-.912-.031-1.375 0-.184-.006-.362-.013-.552-.006-.634-.013-1.268-.013-1.927V86.104c0-.583 0-1.147.013-1.712 0-.31.013-.62.02-.925.006-.33.012-.66.025-.977.006-.297.019-.595.031-.887l.039-.938c.012-.292.031-.57.044-.856.02-.304.032-.602.057-.894.02-.279.038-.545.064-.818.019-.266.044-.532.063-.792.058-.666.121-1.325.197-1.959.077-.634.16-1.243.248-1.832.058-.387.115-.767.178-1.135a40.783 40.783 0 0 1 .509-2.346l.095-.405c.102-.412.21-.818.324-1.205 0-.006 0-.012.007-.019.102-.361.21-.703.324-1.046.032-.108.07-.209.108-.317a30.916 30.916 0 0 1 .642-1.693l.076-.19c.166-.374.33-.735.509-1.077.14-.28.286-.552.438-.812.115-.203.236-.4.356-.59.172-.278.35-.55.534-.804l.115-.172c.229-.317.464-.614.705-.893.115-.14.236-.273.356-.4l.153-.171c.184-.19.369-.374.553-.551.28-.26.566-.495.864-.717l.216-.158c.3-.216.604-.419.922-.596 1.92-1.053 4.113-1.572 6.586-1.572H94.731c-2.473 0-4.673.526-6.586 1.572-.318.177-.623.38-.922.596-.07.05-.146.101-.216.158-.292.222-.585.457-.864.717l-.013.012c-.184.171-.362.349-.54.539l-.153.171c-.095.102-.19.21-.286.317-.025.026-.044.057-.063.083-.242.285-.477.583-.706.9-.006.012-.019.019-.025.032-.032.044-.058.095-.09.133-.184.26-.362.526-.533.811-.032.05-.064.089-.09.14-.088.145-.177.297-.266.45-.14.24-.274.488-.407.748-.013.019-.02.044-.032.063-.178.342-.343.704-.508 1.084 0 .013-.013.025-.02.038l-.057.152c-.152.355-.292.723-.432 1.103-.025.064-.044.115-.07.178-.05.133-.095.279-.14.418-.038.102-.07.21-.108.31-.114.343-.222.686-.324 1.047 0 .006 0 .013-.006.019-.115.387-.223.792-.325 1.198l-.095.406c-.063.253-.12.507-.184.767-.007.032-.013.063-.02.089-.107.481-.209.976-.304 1.49l-.153.925c-.013.07-.019.14-.025.21a56.62 56.62 0 0 0-.445 3.791c-.007.075-.02.145-.026.227-.013.184-.025.38-.044.565-.02.272-.045.538-.064.817l-.057.894c-.02.286-.032.564-.044.856l-.039.938c-.012.298-.025.59-.031.888-.013.323-.02.653-.026.976l-.019.926v.272c0 .47-.006.951-.006 1.433v27.247c0 .653 0 1.293.012 1.927 0 .184.007.368.013.552.007.463.02.925.032 1.375 0 .178.013.355.019.533.019.602.044 1.192.076 1.769s.064 1.134.108 1.686c0 .063.007.127.013.19.006.102.02.197.025.298.032.406.064.799.102 1.192.013.158.032.317.045.469.05.52.108 1.033.165 1.528.057.431.12.849.184 1.268.02.139.045.272.07.406.045.272.09.545.14.811a.37.37 0 0 0 .013.082l.038.184c.076.419.159.831.248 1.236l.076.362c.102.463.21.919.324 1.356l.038.14a27.839 27.839 0 0 0 .433 1.483c.127.412.26.812.4 1.198.203.514.413 1.002.63 1.471a.99.99 0 0 1 .05.121c.21.443.42.868.642 1.28.032.057.057.108.09.165.215.393.438.767.667 1.129.038.057.07.114.108.171.229.348.464.684.705 1.001.02.026.038.057.058.083.076.101.158.203.235.298.146.171.298.329.451.488l.013.012c.248.254.502.495.763.717.025.025.05.051.082.076.026.019.045.038.07.057.223.184.445.361.674.526 0 0 .013.006.013.013.025.019.057.038.089.057.178.127.356.247.54.361.025.019.05.038.083.051.044.025.095.051.14.082.14.083.28.159.419.235.044.025.089.051.127.076l.114.057c.128.063.255.121.388.184.058.025.115.057.172.082.063.026.12.051.184.076.185.076.375.146.56.21.171.057.343.107.52.158.096.032.191.063.287.089l.133.038c.337.089.68.165 1.03.234a.1.1 0 0 1 .045.007c.089.019.184.025.28.038.279.044.552.095.838.127.051 0 .108 0 .16.012.215.019.438.032.654.045.19.012.375.031.572.038H105.327c-.318 0-.629-.026-.941-.038l.006-.013Z"/><path fill="url(#f)" d="M142.475 86.87c0-.26-.013-.513-.019-.773a142.98 142.98 0 0 0-.051-1.654l-.038-.869c-.026-.513-.051-1.014-.083-1.515-.019-.285-.032-.564-.051-.843-.013-.152-.019-.305-.032-.457-.019-.285-.051-.558-.07-.843a59.44 59.44 0 0 0-.101-1.154c-.038-.412-.083-.811-.127-1.217-.039-.374-.083-.748-.121-1.11l-.153-1.178c-.051-.362-.095-.723-.146-1.078-.057-.387-.121-.76-.184-1.135l-.172-1.04a3.67 3.67 0 0 1-.044-.272c-.102-.539-.204-1.072-.312-1.598-1.163-5.63-2.829-10.466-4.996-14.492a45.1 45.1 0 0 0-.814-1.458c-.095-.158-.191-.31-.286-.469-.184-.31-.375-.621-.566-.926-.114-.183-.235-.355-.356-.532a35.798 35.798 0 0 0-.54-.792c-.127-.184-.267-.362-.4-.54a20.31 20.31 0 0 0-.426-.582c-.032-.039-.064-.077-.096-.121a36.002 36.002 0 0 0-.883-1.084c-.07-.082-.14-.171-.21-.254a30.75 30.75 0 0 0-1.144-1.248.436.436 0 0 1-.051-.058c-.318-.323-.636-.64-.966-.95-.026-.026-.051-.045-.07-.064a28.623 28.623 0 0 0-.915-.818c-.051-.044-.102-.082-.153-.126-.35-.292-.706-.577-1.062-.85l-.33-.247c-.146-.108-.292-.222-.439-.33-.114-.082-.235-.158-.349-.24-.121-.083-.235-.166-.356-.248-.299-.203-.598-.4-.903-.59a7.02 7.02 0 0 0-.235-.152c-.019-.012-.045-.025-.064-.038-.051-.031-.108-.057-.165-.088-.489-.298-.985-.571-1.494-.837-.076-.045-.152-.089-.235-.133-.07-.038-.146-.064-.216-.102a31.078 31.078 0 0 0-1.685-.792c-.012 0-.019-.013-.031-.013a29.345 29.345 0 0 0-1.799-.697c-.076-.026-.146-.057-.223-.083-.26-.088-.527-.177-.794-.26a35.649 35.649 0 0 0-1.831-.551c-.076-.02-.146-.044-.222-.07-.159-.044-.325-.076-.484-.12-.19-.051-.381-.095-.572-.14-.292-.07-.584-.133-.877-.19l-.546-.114c-.058-.013-.109-.025-.166-.032-.216-.038-.432-.07-.648-.108-.235-.038-.477-.082-.712-.12a36.504 36.504 0 0 0-.82-.108c-.242-.031-.477-.063-.725-.088-.044 0-.082-.013-.127-.02-.159-.019-.318-.025-.477-.038-.368-.038-.737-.07-1.112-.095l-.687-.038c-.349-.019-.705-.031-1.061-.044-.102 0-.203-.013-.305-.013-.324-.006-.642-.012-.966-.012H94.75c.425 0 .851.012 1.27.025.357.013.706.025 1.062.044l.687.038c.375.026.744.057 1.112.095.197.02.4.032.604.058.242.025.483.063.725.088.273.038.546.07.82.108.241.038.477.076.712.12.273.045.54.09.807.14l.547.114c.292.063.591.127.877.19.191.045.381.095.572.14.235.057.477.12.712.19.617.171 1.233.349 1.831.551.343.108.68.229 1.01.35.611.215 1.214.443 1.799.696.013 0 .026.013.038.02a31.437 31.437 0 0 1 3.63 1.863l.229.133c.076.051.152.102.235.153.305.19.604.386.903.59.12.081.241.164.356.246.267.184.527.374.788.57.108.083.222.166.33.248.356.279.712.558 1.062.85.362.304.718.62 1.061.944.026.026.051.045.07.064.344.323.687.659 1.017 1.008.388.399.77.817 1.145 1.248.07.083.139.172.209.254.299.355.592.71.884 1.084.178.228.35.463.521.697.134.178.267.355.401.54.184.26.362.525.54.792.121.177.241.348.356.532.191.298.381.615.566.926.095.158.19.31.286.469.279.475.546.963.813 1.458 2.168 4.026 3.833 8.862 4.997 14.492.127.615.241 1.236.356 1.87.063.343.114.691.171 1.04.064.38.127.754.185 1.135l.152 1.077c.051.387.108.78.153 1.173.044.368.082.742.127 1.116.044.4.089.805.127 1.21.038.381.07.768.102 1.154.038.431.07.863.101 1.3.019.279.038.564.051.843.032.501.057 1.008.083 1.515l.038.869a142.98 142.98 0 0 1 .095 4.9v20.863c0 1.002-.012 1.985-.038 2.961 0 .171 0 .349-.013.52-.025.957-.063 1.895-.108 2.821l-.038.653a87.509 87.509 0 0 1-.159 2.352l-.038.494c-.038.457-.089.894-.127 1.338-.057.583-.108 1.173-.178 1.75-.051.437-.114.862-.165 1.293-.07.545-.14 1.097-.223 1.629-.101.653-.209 1.293-.318 1.934-.038.202-.069.418-.108.621a66.26 66.26 0 0 1-1.144 5.084 54.8 54.8 0 0 1-.585 2.003c-.057.178-.108.355-.165.533a52.99 52.99 0 0 1-.693 2.041c-.038.114-.082.222-.127.336a51.894 51.894 0 0 1-.636 1.642c-.069.165-.133.33-.203.488a54.964 54.964 0 0 1-.801 1.801c-.038.076-.076.152-.108.228a50.423 50.423 0 0 1-.788 1.559c-.07.127-.134.254-.204.374-.298.552-.61 1.084-.928 1.611-.057.095-.12.19-.184.291-.28.45-.572.894-.871 1.325-.076.108-.146.222-.222.33-.369.52-.744 1.027-1.132 1.515-.356.45-.724.881-1.093 1.306-.197.222-.394.437-.598.653-.228.247-.457.494-.692.735-.204.209-.414.412-.623.615a29.25 29.25 0 0 1-.795.748c-.102.095-.21.19-.318.279-.419.368-.839.723-1.271 1.065-.013.007-.019.019-.032.026a39.01 39.01 0 0 1-1.297.957c-.114.076-.228.158-.343.234-.451.305-.909.603-1.379.888 0 0-.013.006-.019.013-.464.279-.941.538-1.418.786-.121.063-.248.126-.369.19-.489.247-.985.488-1.487.704-4.545 1.99-9.592 2.985-15.141 2.985h10.431c5.549 0 10.596-.995 15.141-2.985.502-.222.998-.457 1.488-.704.12-.064.248-.127.368-.19.477-.254.954-.507 1.418-.786 0 0 .013-.007.019-.013.47-.279.928-.577 1.379-.888.115-.076.229-.158.344-.234.438-.304.877-.621 1.296-.957.013-.007.019-.019.032-.026.432-.342.858-.697 1.271-1.065l.318-.279.324-.285c.159-.146.312-.311.471-.463.21-.203.419-.406.623-.615.235-.241.464-.488.693-.735.197-.216.4-.431.597-.653.057-.07.121-.133.184-.203a35.71 35.71 0 0 0 1.901-2.415c.045-.064.089-.133.14-.203.076-.108.152-.216.222-.323.299-.432.585-.875.871-1.325.064-.095.121-.191.185-.292.031-.051.063-.095.089-.139.286-.476.565-.97.839-1.465l.203-.374c.102-.19.21-.38.305-.577.165-.323.324-.653.483-.982.038-.077.076-.153.108-.229.223-.469.439-.944.649-1.432.051-.121.101-.248.152-.368.07-.159.134-.323.204-.488.222-.539.432-1.084.635-1.642.045-.114.083-.222.127-.336.019-.044.032-.089.051-.133a50.77 50.77 0 0 0 .642-1.908c.057-.178.108-.355.166-.533l.305-.995a63.058 63.058 0 0 0 .921-3.626l.019-.089a79.08 79.08 0 0 0 .484-2.377c.038-.203.069-.413.108-.622.095-.545.197-1.09.279-1.648l.038-.279c.083-.532.153-1.084.223-1.629.057-.431.114-.856.165-1.293.064-.571.121-1.161.178-1.75.038-.374.083-.736.115-1.116 0-.076.012-.152.019-.228l.038-.495c.057-.773.114-1.559.159-2.352l.038-.652c.044-.926.082-1.864.108-2.822 0-.171.006-.348.013-.519.012-.482.025-.958.025-1.446 0-.501.006-1.001.006-1.509V89.368c0-.837-.012-1.66-.025-2.472l-.006-.025Z"/><path fill="url(#g)" d="M125.331 55.643c2.168 4.025 3.833 8.862 4.996 14.492 1.157 5.572 1.736 11.975 1.736 19.208v20.864c0 9.052-.884 16.863-2.651 23.437-1.767 6.51-4.316 11.867-7.647 16.064-3.28 4.139-7.196 7.208-11.734 9.192-4.545 1.991-9.592 2.986-15.142 2.986-4.443 0-8.581-.609-12.414-1.82a30.434 30.434 0 0 1-10.374-5.883c-3.026-2.649-5.65-5.99-7.876-10.016-2.167-4.083-3.833-8.945-4.99-14.574-1.163-5.63-1.741-12.09-1.741-19.38V89.35c0-9.053.883-16.806 2.65-23.266 1.818-6.517 4.367-11.842 7.647-15.988 3.331-4.134 7.266-7.17 11.81-9.104C84.148 39.002 89.195 38 94.75 38c4.437 0 8.55.64 12.339 1.908a29.974 29.974 0 0 1 10.373 5.718c3.077 2.593 5.702 5.934 7.876 10.017h-.006Zm-15.141 57.714V86.11c0-4.361-.229-8.171-.687-11.43-.407-3.258-1.03-6.016-1.888-8.28-.858-2.32-1.92-4.196-3.178-5.629-1.265-1.439-2.702-2.485-4.316-3.15-1.615-.66-3.407-.996-5.378-.996-2.473 0-4.672.526-6.585 1.572-1.863 1.053-3.452 2.733-4.774 5.053-1.31 2.263-2.32 5.3-3.026 9.11-.654 3.753-.979 8.336-.979 13.744v27.247c0 4.361.197 8.197.604 11.506.451 3.316 1.106 6.156 1.964 8.527.91 2.32 1.97 4.222 3.179 5.718 1.265 1.433 2.701 2.479 4.316 3.144 1.665.66 3.483.996 5.447.996 2.422 0 4.564-.527 6.433-1.573 1.92-1.109 3.528-2.821 4.844-5.135 1.36-2.371 2.371-5.464 3.026-9.274.654-3.804.985-8.444.985-13.909"/><path fill="#94B2FF" fill-rule="evenodd" d="M49.912 136.813 28 117.761l21.912-19.053V111H92v14H49.912v11.813Z" clip-rule="evenodd"/><path fill="url(#h)" d="M0 0h93v14H0z" transform="matrix(-1 0 0 1 105 76)"/><defs><linearGradient id="a" x1="87" x2="187.934" y1="100" y2="102.587" gradientUnits="userSpaceOnUse"><stop stop-color="#D1F8FE"/><stop offset=".477" stop-color="#4270E8" stop-opacity=".71"/><stop offset="1" stop-color="#A389FF" stop-opacity="0"/></linearGradient><linearGradient id="b" x1="50" x2="181.852" y1="177" y2="181.417" gradientUnits="userSpaceOnUse"><stop stop-color="#9896F3" stop-opacity="0"/><stop offset=".495" stop-color="#948BCC"/><stop offset="1" stop-color="#775DD1" stop-opacity="0"/></linearGradient><linearGradient id="c" x1="31" x2="104.974" y1="28" y2="29.389" gradientUnits="userSpaceOnUse"><stop stop-color="#A389FF" stop-opacity="0"/><stop offset=".495" stop-color="#A389FF"/><stop offset="1" stop-color="#A389FF" stop-opacity="0"/></linearGradient><linearGradient id="d" x1="106" x2="0" y1="35" y2="35" gradientUnits="userSpaceOnUse"><stop stop-color="#94B2FF"/><stop offset="1" stop-color="#4644FF" stop-opacity="0"/></linearGradient><linearGradient id="e" x1="92.347" x2="92.347" y1="56.645" y2="143.261" gradientUnits="userSpaceOnUse"><stop stop-color="#854DFC"/><stop offset="1" stop-color="#623FF0"/></linearGradient><linearGradient id="f" x1="118.628" x2="118.628" y1="38.019" y2="161.923" gradientUnits="userSpaceOnUse"><stop stop-color="#933EE9"/><stop offset="1" stop-color="#6832DA"/></linearGradient><linearGradient id="h" x1="0" x2="93" y1="10" y2="10" gradientUnits="userSpaceOnUse"><stop offset=".128" stop-color="#94B2FF"/><stop offset="1" stop-color="#7673FF" stop-opacity="0"/></linearGradient><radialGradient id="g" cx="0" cy="0" r="1" gradientTransform="rotate(68.025 27.973 36.658) scale(215.129 115.901)" gradientUnits="userSpaceOnUse"><stop stop-color="#F8E3FF"/><stop offset=".401" stop-color="#E090FD"/><stop offset="1" stop-color="#7C57E7"/></radialGradient></defs></svg>